
<svg xmlns="http://www.w3.org/2000/svg" viewBox="0 0 55 55">
	<style type="text/css">
		.st0{fill:url(#SVGID_1_);}
		.st1{fill:url(#SVGID_2_);}
		.st2{fill:url(#l1_4_);}
		.st3{fill:url(#l2_4_);}
		.st4{fill:url(#l3_5_);}
		.st5{fill:#E6A443;}
		.st6{fill:url(#l1_5_);}
		.st7{fill:url(#l2_5_);}
		.st8{fill:url(#l3_6_);}
		.st9{fill:#E8666C;}
		.st10{fill:url(#l1_6_);}
		.st11{fill:url(#l2_6_);}
		.st12{fill:url(#l3_7_);}
		.st13{fill:#75D994;}
		.st14{fill:url(#l1_7_);}
		.st15{fill:url(#l2_7_);}
		.st16{fill:url(#l3_8_);}
		.st17{fill:#5ABDE4;}
		.st18{fill:#888888;}
	</style>
	<filter x="-6.1%" y="-3.9%" width="112.1%" height="113.2%" filterUnits="objectBoundingBox" id="filter-1">
		<feOffset dx="0" dy=".5" in="SourceAlpha" result="numbersShadowOffsetOuter1"></feOffset>
		<feGaussianBlur stdDeviation=".25" in="numbersShadowOffsetOuter1" result="numbersShadowBlurOuter1"></feGaussianBlur>
		<feColorMatrix values="0 0 0 0 0   0 0 0 0 0   0 0 0 0 0  0 0 0 0.5 0" type="matrix" in="numbersShadowBlurOuter1" result="numbersShadowMatrixOuter1"></feColorMatrix>
		<feMerge>
			<feMergeNode in="numbersShadowMatrixOuter1"></feMergeNode>
			<feMergeNode in="SourceGraphic"></feMergeNode>
		</feMerge>
	</filter>
	<filter x="-6.1%" y="-3.9%" width="112.1%" height="113.2%" filterUnits="objectBoundingBox" id="filter-2">
		<feOffset dx="0" dy=".5" in="SourceAlpha" result="numbersShadowOffsetOuter2"></feOffset>
		<feGaussianBlur stdDeviation=".25" in="numbersShadowOffsetOuter2" result="numbersShadowBlurOuter2"></feGaussianBlur>
		<feColorMatrix values="0 0 0 0 0   0 0 0 0 0   0 0 0 0 0  0 0 0 0.5 0" type="matrix" in="numbersShadowBlurOuter2" result="numbersShadowMatrixOuter2"></feColorMatrix>
		<feMerge>
			<feMergeNode in="numbersShadowMatrixOuter2"></feMergeNode>
			<feMergeNode in="SourceGraphic"></feMergeNode>
		</feMerge>
	</filter>
	<linearGradient id="SVGID_1_" gradientUnits="userSpaceOnUse" x1="0.7814" y1="4.0044" x2="54.2218" y2="4.0044" gradientTransform="matrix(1 0 0 -1 0 56)">
		<stop  offset="0" style="stop-color:#777777"/>
		<stop  offset="3.000000e-02" style="stop-color:#CCCCCC"/>
		<stop  offset="0.97" style="stop-color:#CCCCCC"/>
		<stop  offset="1" style="stop-color:#777777"/>
	</linearGradient>
	<linearGradient id="SVGID_2_" gradientUnits="userSpaceOnUse" x1="27.5" y1="3.9634" x2="27.5" y2="25.2924" gradientTransform="matrix(1 0 0 -1 0 56)">
		<stop  offset="0" style="stop-color:#FDFDFD"/>
		<stop  offset="1" style="stop-color:#DDDDDD"/>
	</linearGradient>
	<linearGradient id="l1_4_" gradientUnits="userSpaceOnUse" x1="19.221" y1="23.9417" x2="28.916" y2="23.9417" gradientTransform="matrix(1 0 0 -1 0 56)">
		<stop  offset="0" style="stop-color:#BC7720"/>
		<stop  offset="0.12" style="stop-color:#FFB31D"/>
		<stop  offset="0.88" style="stop-color:#FFB31D"/>
		<stop  offset="1" style="stop-color:#BC7720"/>
	</linearGradient>
	<linearGradient id="l2_4_" gradientUnits="userSpaceOnUse" x1="24.0685" y1="39.0295" x2="24.0685" y2="8.8539" gradientTransform="matrix(1 0 0 -1 0 56)">
		<stop  offset="0" style="stop-color:#FFB31D;stop-opacity:0"/>
		<stop  offset="1" style="stop-color:#F06611;stop-opacity:0.5"/>
	</linearGradient>
	<linearGradient id="l3_5_" gradientUnits="userSpaceOnUse" x1="24.0685" y1="39.0295" x2="24.0685" y2="35.8787" gradientTransform="matrix(1 0 0 -1 0 56)">
		<stop  offset="0" style="stop-color:#FFC962"/>
		<stop  offset="0.88" style="stop-color:#FFCA65"/>
		<stop  offset="1" style="stop-color:#FFE6BB"/>
	</linearGradient>
	<linearGradient id="l1_5_" gradientUnits="userSpaceOnUse" x1="8.4353" y1="18.9125" x2="18.1303" y2="18.9125" gradientTransform="matrix(1 0 0 -1 0 56)">
		<stop  offset="0" style="stop-color:#C0323C"/>
		<stop  offset="0.12" style="stop-color:#E94A59"/>
		<stop  offset="0.88" style="stop-color:#E94A59"/>
		<stop  offset="1" style="stop-color:#C0323C"/>
	</linearGradient>
	<linearGradient id="l2_5_" gradientUnits="userSpaceOnUse" x1="13.2828" y1="28.971" x2="13.2828" y2="8.8539" gradientTransform="matrix(1 0 0 -1 0 56)">
		<stop  offset="0" style="stop-color:#FFB31D;stop-opacity:0"/>
		<stop  offset="1" style="stop-color:#B71E1E;stop-opacity:0.6"/>
	</linearGradient>
	<linearGradient id="l3_6_" gradientUnits="userSpaceOnUse" x1="13.2828" y1="28.971" x2="13.2828" y2="25.8201" gradientTransform="matrix(1 0 0 -1 0 56)">
		<stop  offset="0" style="stop-color:#FA7A7E"/>
		<stop  offset="0.88" style="stop-color:#FA7A7E"/>
		<stop  offset="1" style="stop-color:#FBAFB0"/>
	</linearGradient>
	<linearGradient id="l1_6_" gradientUnits="userSpaceOnUse" x1="30.1278" y1="31.3947" x2="39.8228" y2="31.3947" gradientTransform="matrix(1 0 0 -1 0 56)">
		<stop  offset="0" style="stop-color:#3FA45C"/>
		<stop  offset="0.12" style="stop-color:#51E884"/>
		<stop  offset="0.88" style="stop-color:#51E884"/>
		<stop  offset="1" style="stop-color:#3FA45C"/>
	</linearGradient>
	<linearGradient id="l2_6_" gradientUnits="userSpaceOnUse" x1="34.9753" y1="53.9356" x2="34.9753" y2="8.8539" gradientTransform="matrix(1 0 0 -1 0 56)">
		<stop  offset="0" style="stop-color:#FFB31D;stop-opacity:0"/>
		<stop  offset="1" style="stop-color:#009E1B;stop-opacity:0.6"/>
	</linearGradient>
	<linearGradient id="l3_7_" gradientUnits="userSpaceOnUse" x1="34.9753" y1="53.9356" x2="34.9753" y2="50.7847" gradientTransform="matrix(1 0 0 -1 0 56)">
		<stop  offset="0" style="stop-color:#77F497"/>
		<stop  offset="0.88" style="stop-color:#77F497"/>
		<stop  offset="1" style="stop-color:#ADF5BE"/>
	</linearGradient>
	<linearGradient id="l1_7_" gradientUnits="userSpaceOnUse" x1="40.9135" y1="27.032" x2="50.6085" y2="27.032" gradientTransform="matrix(1 0 0 -1 0 56)">
		<stop  offset="0" style="stop-color:#3A90B0"/>
		<stop  offset="0.12" style="stop-color:#52CEFB"/>
		<stop  offset="0.88" style="stop-color:#52CEFB"/>
		<stop  offset="1" style="stop-color:#3A90B0"/>
	</linearGradient>
	<linearGradient id="l2_7_" gradientUnits="userSpaceOnUse" x1="45.761" y1="45.2101" x2="45.761" y2="8.8539" gradientTransform="matrix(1 0 0 -1 0 56)">
		<stop  offset="0" style="stop-color:#FFB31D;stop-opacity:0"/>
		<stop  offset="1" style="stop-color:#006ADF;stop-opacity:0.6"/>
	</linearGradient>
	<linearGradient id="l3_8_" gradientUnits="userSpaceOnUse" x1="45.761" y1="45.2101" x2="45.761" y2="42.0592" gradientTransform="matrix(1 0 0 -1 0 56)">
		<stop  offset="0" style="stop-color:#68D1FB"/>
		<stop  offset="0.88" style="stop-color:#7DD6FC"/>
		<stop  offset="1" style="stop-color:#A9E1FD"/>
	</linearGradient>
	
	<g id="plate" filter="url(#filter-2)">
		<path class="st0" d="M54.2,51l0,0.9c0,0.7-0.3,1-0.8,1H1.6c-0.5,0-0.7-0.3-0.7-0.7L0.8,51L54.2,51z"/>
		<path class="st1" d="M54.2,51.1c0,0.5-0.4,1-1,1H1.7c-0.5,0-1-0.4-1-1l1.5-19.4c0-0.5,0.4-1,1-1h48.6c0.5,0,1,0.4,1,1L54.2,51.1z"/>
	</g>
	<g id="orange" filter="url(#filter-2)">
		<path id="l1" class="st2" d="M28.9,46.2c0,0.5-0.4,1-1,1h-7.8c-0.5,0-1-0.4-1-1V17.9c0-0.5,0.4-1,1-1h7.8c0.5,0,1,0.4,1,1V46.2z"/>
		<path id="l2" class="st3" d="M28.9,46.2c0,0.5-0.4,1-1,1h-7.8c-0.5,0-1-0.4-1-1V17.9c0-0.5,0.4-1,1-1h7.8c0.5,0,1,0.4,1,1V46.2z"/>
		<path id="l3_1_" class="st4" d="M28.9,19.2c0,0.5-0.4,1-1,1h-7.8c-0.5,0-1-0.4-1-1v-1.2c0-0.5,0.4-1,1-1h7.8c0.5,0,1,0.4,1,1V19.2z "/>
		<path class="st5" d="M27.9,20.2h-7.8c-0.6,0-1-0.4-1-1v-1.2c0-0.6,0.4-1,1-1h7.8c0.6,0,1,0.4,1,1v1.2 C28.9,19.7,28.5,20.2,27.9,20.2z M20.2,17c-0.5,0-0.9,0.4-0.9,0.9v1.2c0,0.5,0.4,0.9,0.9,0.9h7.8c0.5,0,0.9-0.4,0.9-0.9v-1.2 c0-0.5-0.4-0.9-0.9-0.9H20.2z"/>
	</g>
	<g id="red" filter="url(#filter-2)">
		<path id="l1_1_" class="st6" d="M18.1,46.2c0,0.5-0.4,1-1,1H9.4c-0.5,0-1-0.4-1-1V28c0-0.5,0.4-1,1-1h7.8c0.5,0,1,0.4,1,1V46.2z"/>
		<path id="l2_1_" class="st7" d="M18.1,46.2c0,0.5-0.4,1-1,1H9.4c-0.5,0-1-0.4-1-1V28c0-0.5,0.4-1,1-1h7.8c0.5,0,1,0.4,1,1V46.2z"/>
		<path id="l3_2_" class="st8" d="M18.1,29.2c0,0.5-0.4,1-1,1H9.4c-0.5,0-1-0.4-1-1V28c0-0.5,0.4-1,1-1h7.8c0.5,0,1,0.4,1,1V29.2z"/>
		<path class="st9" d="M17.2,30.2H9.4c-0.6,0-1-0.4-1-1V28c0-0.6,0.4-1,1-1h7.8c0.6,0,1,0.4,1,1v1.2C18.2,29.8,17.7,30.2,17.2,30.2z  M9.4,27.1c-0.5,0-0.9,0.4-0.9,0.9v1.2c0,0.5,0.4,0.9,0.9,0.9h7.8c0.5,0,0.9-0.4,0.9-0.9V28c0-0.5-0.4-0.9-0.9-0.9H9.4z"/>
	</g>
	<g id="green" filter="url(#filter-2)">
		<path id="l1_2_" class="st10" d="M39.8,46.2c0,0.5-0.4,1-1,1h-7.8c-0.5,0-1-0.4-1-1V3c0-0.5,0.4-1,1-1h7.8c0.5,0,1,0.4,1,1V46.2z" />
		<path id="l2_2_" class="st11" d="M39.8,46.2c0,0.5-0.4,1-1,1h-7.8c-0.5,0-1-0.4-1-1V3c0-0.5,0.4-1,1-1h7.8c0.5,0,1,0.4,1,1V46.2z" />
		<path id="l3_3_" class="st12" d="M39.8,4.2c0,0.5-0.4,1-1,1h-7.8c-0.5,0-1-0.4-1-1V3c0-0.5,0.4-1,1-1h7.8c0.5,0,1,0.4,1,1V4.2z"/>
		<path class="st13" d="M38.9,5.2h-7.8c-0.6,0-1-0.4-1-1V3c0-0.6,0.4-1,1-1h7.8c0.6,0,1,0.4,1,1v1.2C39.9,4.8,39.4,5.2,38.9,5.2z  M31.1,2.1c-0.5,0-0.9,0.4-0.9,0.9v1.2c0,0.5,0.4,0.9,0.9,0.9h7.8c0.5,0,0.9-0.4,0.9-0.9V3c0-0.5-0.4-0.9-0.9-0.9H31.1z"/>
	</g>
	<g id="blue" filter="url(#filter-2)">
		<path id="l1_3_" class="st14" d="M50.6,46.2c0,0.5-0.4,1-1,1h-7.8c-0.5,0-1-0.4-1-1V11.8c0-0.5,0.4-1,1-1h7.8c0.5,0,1,0.4,1,1V46.2 z"/>
		<path id="l2_3_" class="st15" d="M50.6,46.2c0,0.5-0.4,1-1,1h-7.8c-0.5,0-1-0.4-1-1V11.8c0-0.5,0.4-1,1-1h7.8c0.5,0,1,0.4,1,1V46.2 z"/>
		<path id="l3_4_" class="st16" d="M50.6,13c0,0.5-0.4,1-1,1h-7.8c-0.5,0-1-0.4-1-1v-1.2c0-0.5,0.4-1,1-1h7.8c0.5,0,1,0.4,1,1V13z"/>
		<path class="st17" d="M49.6,14h-7.8c-0.6,0-1-0.4-1-1v-1.2c0-0.6,0.4-1,1-1h7.8c0.6,0,1,0.4,1,1V13C50.6,13.5,50.2,14,49.6,14z  M41.9,10.8c-0.5,0-0.9,0.4-0.9,0.9V13c0,0.5,0.4,0.9,0.9,0.9h7.8c0.5,0,0.9-0.4,0.9-0.9v-1.2c0-0.5-0.4-0.9-0.9-0.9H41.9z"/>
	</g>
	<g id="numbers">
		<path class="st18" d="M5.7,34.8l-0.5,0l0.1-1.5c-0.2,0.1-0.4,0.2-0.7,0.3l0-0.4c0.1,0,0.3-0.1,0.5-0.2c0.2-0.1,0.3-0.2,0.4-0.3 l0.4,0L5.7,34.8z"/>
		<path class="st18" d="M6,38l0,0.4l-1.9,0c0-0.1,0.1-0.3,0.2-0.4c0.1-0.1,0.3-0.3,0.6-0.5c0.3-0.2,0.4-0.3,0.5-0.3 c0.1-0.1,0.1-0.2,0.1-0.3c0-0.1,0-0.2-0.1-0.2c-0.1,0-0.2-0.1-0.3-0.1c-0.1,0-0.2,0-0.3,0.1c-0.1,0.1-0.1,0.1-0.1,0.3l-0.5,0 c0-0.2,0.2-0.4,0.3-0.5c0.2-0.1,0.4-0.1,0.6-0.1c0.3,0,0.5,0.1,0.7,0.2c0.2,0.1,0.2,0.3,0.2,0.4C6,36.9,6,37,6,37.1 c-0.1,0.1-0.1,0.2-0.2,0.3c-0.1,0.1-0.2,0.2-0.4,0.3c-0.2,0.1-0.3,0.2-0.3,0.2c0,0-0.1,0.1-0.1,0.1L6,38z"/>
		<path class="st18" d="M3.9,41.4l0.5,0c0,0.1,0.1,0.2,0.1,0.2c0.1,0.1,0.2,0.1,0.3,0.1c0.1,0,0.2,0,0.3-0.1c0.1-0.1,0.1-0.2,0.1-0.3 c0-0.1,0-0.2-0.1-0.2C5.1,41,5,40.9,4.9,40.9c-0.1,0-0.2,0-0.3,0l0.1-0.3c0.1,0,0.3,0,0.3-0.1c0.1-0.1,0.1-0.1,0.1-0.2 c0-0.1,0-0.1-0.1-0.2c-0.1,0-0.1-0.1-0.2-0.1c-0.1,0-0.2,0-0.2,0.1c-0.1,0-0.1,0.1-0.1,0.2L4,40.3c0-0.1,0.1-0.2,0.2-0.3 c0.1-0.1,0.2-0.1,0.3-0.2c0.1,0,0.3-0.1,0.4-0.1c0.3,0,0.5,0.1,0.6,0.2c0.1,0.1,0.2,0.2,0.2,0.4c0,0.2-0.2,0.3-0.4,0.4 c0.2,0,0.3,0.1,0.4,0.2c0.1,0.1,0.1,0.2,0.1,0.3c0,0.2-0.1,0.3-0.3,0.5C5.3,41.9,5.1,42,4.8,42c-0.3,0-0.5-0.1-0.6-0.2 C4,41.7,3.9,41.5,3.9,41.4z"/>
		<path class="st18" d="M4.8,45.5l0-0.4l-1.2,0l0-0.4L5,43.4l0.5,0l-0.1,1.4l0.4,0l0,0.4l-0.4,0l0,0.4L4.8,45.5z M4.8,44.7l0-0.7 l-0.7,0.7L4.8,44.7z"/>
		<path class="st18" d="M3.5,48.5l0.5,0c0,0.1,0.1,0.2,0.1,0.2c0.1,0.1,0.2,0.1,0.3,0.1c0.1,0,0.2,0,0.3-0.1c0.1-0.1,0.1-0.2,0.1-0.3 c0-0.1,0-0.2-0.1-0.3C4.7,48,4.6,48,4.5,48c-0.2,0-0.3,0.1-0.4,0.2l-0.4,0L4,47l1.4,0l0,0.4l-1,0l-0.1,0.4c0.1,0,0.2-0.1,0.4-0.1 c0.2,0,0.4,0.1,0.6,0.2c0.2,0.1,0.2,0.3,0.2,0.5c0,0.2-0.1,0.3-0.2,0.5C5,49,4.8,49.1,4.4,49.1c-0.3,0-0.5-0.1-0.6-0.2 C3.7,48.9,3.6,48.7,3.5,48.5z"/>
	</g>
</svg>
