<svg xmlns="http://www.w3.org/2000/svg" width="0" height="0">
	<svg id="icon-sidebar" viewBox="0 0 500 500">
		<path fill="#333" d="M480,40H20C8.954,40,0,48.954,0,60v380c0,11.046,8.954,20,20,20h460c11.046,0,20-8.954,20-20V60 C500,48.954,491.046,40,480,40z M40,80h120v340H40V80z M460,420H200V80h260V420z"/>
		<rect fill="#333" x="70" y="120" width="50" height="50"/>
		<rect fill="#333" x="70" y="210" width="50" height="50"/>
	</svg>

	<svg id="icon-formula" viewBox="0 0 500 500">
		<path fill="#333" d="M353.045,245.455h-81.301v-85.296c0-11.157-9.041-20.199-20.196-20.199s-20.199,9.042-20.199,20.199v85.296h-81.298 c-11.155,0-20.198,9.043-20.198,20.198s9.043,20.199,20.198,20.199h81.298v86.296c0,11.157,9.044,20.198,20.199,20.198 s20.196-9.041,20.196-20.198v-86.296h81.301c11.152,0,20.196-9.044,20.196-20.199S364.197,245.455,353.045,245.455z"/>
		<path fill="#333" d="M503.773,383.025V100.572c0-11.155-9.043-20.197-20.2-20.197H67.498c-8.135-18.134-26.346-30.803-47.473-30.803 c-28.68,0-52.012,23.331-52.012,52.012c0,21.126,12.669,39.336,30.803,47.473v283.689c0,11.153,9.043,20.196,20.197,20.196h417.043 c8.347,17.596,26.279,29.793,47.014,29.793c28.677,0,52.011-23.334,52.011-52.011C535.081,409.403,522.177,391.044,503.773,383.025z  M-1.689,101.584c0-11.975,9.742-21.713,21.715-21.713c1.584,0,3.126,0.18,4.615,0.504c9.761,2.124,17.098,10.82,17.098,21.209 c0,11.973-9.74,21.713-21.713,21.713c-10.389,0-19.085-7.337-21.209-17.1C-1.508,104.709-1.689,103.168-1.689,101.584z  M434.345,412.547H39.214V149.909c13.263-5.285,23.852-15.874,29.138-29.138h395.024v261.826 C450.013,388.088,439.422,398.979,434.345,412.547z M500.921,443.06c-3.927,5.66-10.461,9.378-17.851,9.378 c-11.974,0-21.715-9.737-21.715-21.713c0-11.972,9.741-21.714,21.715-21.714c9.693,0,17.92,6.391,20.703,15.176 c0.651,2.065,1.01,4.263,1.01,6.538C504.783,435.304,503.35,439.555,500.921,443.06z"/>
	</svg>

	<svg id="icon-table" viewBox="0 0 500 500">
		<rect fill="#333" y="42.468" width="223.215" height="101.205"/>
		<rect fill="#333" x="276.785" y="42.468" width="223.215" height="101.205"/>
		<rect fill="#333" y="199.897" width="223.215" height="101.206"/>
		<rect fill="#333" x="276.785" y="199.897" width="223.215" height="101.206"/>
		<rect fill="#333" y="357.327" width="223.215" height="101.204"/>
		<rect fill="#333" x="276.785" y="357.327" width="223.215" height="101.204"/>
	</svg>

	<svg id="icon-chart" viewBox="0 0 500 500">
		<rect fill="#333" x="361" y="39.5" width="139" height="421"/>
		<rect fill="#333" x="180.5" y="149.5" width="139" height="311"/>
		<rect fill="#333" y="279.5" width="139" height="181"/>
	</svg>

	<svg id="icon-text" viewBox="0 0 500 500">
		<polygon fill="#333" points="500,34.5 0,34.5 0,119.5 207.5,119.5 207.5,500 292.5,500 292.5,119.5 500,119.5"/>
	</svg>

	<svg id="icon-image" viewBox="0 0 500 500">
		<rect fill="#333" y="70" width="500" height="345"/>
	</svg>

	<svg id="icon-chevron-down" viewBox="0 0 1024 1024">
		<path fill="#27d" d="M978.511 367.46l-439.767 439.174c-14.817 14.817-38.524 14.817-53.341 0l-439.767-439.174c-14.817-14.817-14.817-39.117 0-53.934l98.384-97.792c14.817-14.817 38.524-14.817 53.341 0l314.712 314.712 314.712-314.712c14.817-14.817 38.524-14.817 53.341 0l98.384 97.792c14.817 14.817 14.817 39.117 0 53.934z"/>
	</svg>

	<svg id="icon-format" viewBox="0 0 500 500">
		<path fill="#333" d="M219.95,354.929c37.764,19.827,55.848,50.863,104.217,2.493c-44.106-44.106-182.104-182.105-182.104-182.105 c-37.351,37.35-27.747,62.599-0.007,101.011c26.344,36.472-46.23,74.692-62.592,85.362C63.099,372.36,5.919,405.058,5.485,439.935 c-0.358,28.811,28.68,56.823,55.125,54.417c31.299-2.846,60.104-44.454,79.314-75.043 C159.133,388.718,186.442,337.336,219.95,354.929z M44.967,454.512c-7.265-7.266-7.262-19.045,0.003-26.311 c7.264-7.263,19.043-7.264,26.307,0c7.269,7.269,7.269,19.049,0.006,26.313C64.017,461.779,52.237,461.779,44.967,454.512z"/>
		<path fill="#333" d="M173.712,140.82c5.404-5.984,109.904-120.574,115.593-126.977c5.689-6.402,20.983-11.734,31.297-5.691 c10.314,6.048,18.855,12.453,22.41,16.008s1.779,7.469-2.134,12.092c-3.91,4.625-78.601,99.23-78.601,99.23 s99.943-75.043,104.566-78.246c4.623-3.202,16.004-3.914,21.697,1.777c5.69,5.693,100.658,125.556,104.566,133.733 c3.912,8.179-0.713,25.604-8.895,31.651c-8.18,6.049-117.02,102.082-121.283,105.639c-4.266,3.555-15.294,7.473-23.116-1.066 c-7.823-8.542-160.077-160.028-165.756-165.731C168.378,157.535,168.624,146.452,173.712,140.82z"/>
	</svg>

	<svg id="icon-justify-left" viewBox="0 0 19 19">
		<style type="text/css">
			.st0{fill:#333;}
		</style>
		<rect x="3" y="5" class="st0" width="13" height="1"/>
		<rect x="3" y="7" class="st0" width="9" height="1"/>
		<rect x="3" y="9" class="st0" width="12" height="1"/>
		<rect x="3" y="11" class="st0" width="8" height="1"/>
		<rect x="3" y="13" class="st0" width="13" height="1"/>
	</svg>

	<svg id="icon-justify-center" viewBox="0 0 19 19">
		<style type="text/css">
			.st0{fill:#333;}
		</style>
		<rect x="3" y="5" class="st0" width="13" height="1"/>
		<rect x="5" y="7" class="st0" width="9" height="1"/>
		<rect x="4" y="9" class="st0" width="11" height="1"/>
		<rect x="6" y="11" class="st0" width="7" height="1"/>
		<rect x="3" y="13" class="st0" width="13" height="1"/>
	</svg>

	<svg id="icon-justify-right" viewBox="0 0 19 19">
		<style type="text/css">
			.st0{fill:#333;}
		</style>
		<rect x="3" y="5" class="st0" width="13" height="1"/>
		<rect x="7" y="7" class="st0" width="9" height="1"/>
		<rect x="5" y="9" class="st0" width="11" height="1"/>
		<rect x="9" y="11" class="st0" width="7" height="1"/>
		<rect x="3" y="13" class="st0" width="13" height="1"/>>
	</svg>

	<svg id="icon-justify-full" viewBox="0 0 19 19">
		<style type="text/css">
			.st0{fill:#333;}
		</style>
		<rect x="3" y="5" class="st0" width="13" height="1"/>
		<rect x="3" y="7" class="st0" width="13" height="1"/>
		<rect x="3" y="9" class="st0" width="13" height="1"/>
		<rect x="3" y="11" class="st0" width="13" height="1"/>
		<rect x="3" y="13" class="st0" width="13" height="1"/>
	</svg>

	<svg id="icon-justify-fit" viewBox="0 0 19 19">
		<style type="text/css">
			.st0{fill:#333;}
		</style>
		<rect x="3" y="5" class="st0" width="5.2" height="1"/>
		<rect x="10.8" y="5" class="st0" width="5.2" height="1"/>
		<rect x="3" y="7" class="st0" width="4.2" height="1"/>
		<rect x="11.7" y="7" class="st0" width="4.2" height="1"/>
		<rect x="3" y="9" class="st0" width="3.6" height="1"/>
		<rect x="12.4" y="9" class="st0" width="3.6" height="1"/>
		<rect x="3" y="11" transform="matrix(-1 -1.224647e-16 1.224647e-16 -1 8.8092 23)" class="st0" width="2.8" height="1"/>
		<rect x="13.2" y="11" transform="matrix(-1 -1.224647e-16 1.224647e-16 -1 29.1908 23)" class="st0" width="2.8" height="1"/>
		<rect x="3" y="13" class="st0" width="2" height="1"/>
		<rect x="14" y="13" class="st0" width="2" height="1"/>
		<path d="M8.1,11.6L7.3,14h-1l2.6-7.6h1.2l2.6,7.6h-1l-0.8-2.4H8.1z M10.6,10.9L9.9,8.7C9.7,8.2,9.6,7.7,9.5,7.3h0 C9.3,7.7,9.2,8.2,9.1,8.7l-0.7,2.2H10.6z"/>
	</svg>

	<svg id="icon-big-a" viewBox="0 0 19 19">
		<path d="M12.1,13H6.9l-1.4,3h-2l6-13l5.8,13h-2L12.1,13z M11.4,11.3L9.6,7.1l-1.9,4.2H11.4z"/>
	</svg>

	<svg id="icon-small-a" viewBox="0 0 19 19">
		<path d="M11.7,13.5H7.3L6.2,16H4.5L9.6,5l4.9,11h-1.7L11.7,13.5z M11.1,12L9.6,8.5L8,12H11.1z"/>
	</svg>

	<svg id="icon-bold" viewBox="0 0 19 19">
		<path d="M5.7,5h3.6c0.7,0,1.2,0,1.6,0.1s0.7,0.2,0.9,0.4c0.3,0.2,0.5,0.4,0.7,0.8s0.3,0.7,0.3,1.1c0,0.4-0.1,0.8-0.3,1.2 C12.3,8.8,12,9,11.6,9.2c0.6,0.2,1,0.4,1.3,0.8c0.3,0.4,0.4,0.8,0.4,1.4c0,0.4-0.1,0.8-0.3,1.2c-0.2,0.4-0.5,0.7-0.8,0.9 c-0.3,0.2-0.7,0.4-1.2,0.4c-0.3,0-1,0.1-2.2,0.1H5.7V5z M7.5,6.5v2.1h1.2c0.7,0,1.2,0,1.3,0c0.3,0,0.6-0.1,0.7-0.3 C11,8,11.1,7.8,11.1,7.5c0-0.3-0.1-0.5-0.2-0.7s-0.4-0.3-0.7-0.3c-0.2,0-0.7,0-1.6,0H7.5z M7.5,10.1v2.4h1.7c0.7,0,1.1,0,1.3-0.1 c0.3,0,0.5-0.2,0.7-0.4c0.2-0.2,0.3-0.4,0.3-0.8c0-0.3-0.1-0.5-0.2-0.7s-0.3-0.3-0.6-0.4c-0.2-0.1-0.8-0.1-1.6-0.1H7.5z"/>
	</svg>

	<svg id="icon-italic" viewBox="0 0 19 19">
		<path d="M8,14l1.9-9H11l-1.9,9H8z"/>
		<rect x="8.2" y="5" width="4" height="1"/>
		<rect x="6.7" y="13" width="4" height="1"/>
	</svg>

	<svg id="icon-underline" viewBox="0 0 19 19">
		<rect x="6" y="13" width="7" height="1"/>
		<path d="M11,5v4.5c0,0.8-0.7,1.5-1.5,1.5S8,10.3,8,9.5V5H7v4.5C7,10.8,8.1,12,9.5,12c1.4,0,2.5-1.1,2.5-2.5V5H11z"/>
	</svg>

	<svg id="icon-strike" viewBox="0 0 19 19">
		<style type="text/css">
			.st0{opacity:.7;}
		</style>
		<rect x="4" y="9" width="11" height="1"/>
		<path class="st0" d="M6.1,11l1.1-0.1c0.1,0.4,0.2,0.8,0.4,1.1s0.5,0.5,0.9,0.7s0.8,0.3,1.3,0.3c0.4,0,0.8-0.1,1.1-0.2s0.6-0.3,0.7-0.5 s0.2-0.5,0.2-0.7c0-0.3-0.1-0.5-0.2-0.7s-0.4-0.4-0.8-0.5c-0.2-0.1-0.7-0.2-1.5-0.4S7.9,9.5,7.6,9.3C7.2,9.1,6.9,8.8,6.7,8.5 S6.4,7.8,6.4,7.4c0-0.4,0.1-0.8,0.4-1.2s0.6-0.7,1.1-0.9s1-0.3,1.6-0.3c0.6,0,1.2,0.1,1.7,0.3s0.9,0.5,1.1,0.9s0.4,0.8,0.4,1.4 l-1.1,0.1c-0.1-0.5-0.3-1-0.6-1.2s-0.8-0.4-1.5-0.4C8.8,6.1,8.3,6.2,8,6.4S7.5,7,7.5,7.3c0,0.3,0.1,0.6,0.3,0.8 c0.2,0.2,0.8,0.4,1.7,0.6s1.6,0.4,1.9,0.5c0.5,0.2,0.9,0.5,1.1,0.9s0.4,0.8,0.4,1.2c0,0.5-0.1,0.9-0.4,1.3s-0.6,0.7-1.1,0.9 s-1,0.3-1.7,0.3c-0.8,0-1.4-0.1-2-0.3s-0.9-0.6-1.2-1C6.3,12.1,6.1,11.6,6.1,11z"/>
	</svg>

	<svg id="icon-arrange-back" viewBox="0 0 19 19">
		<style type="text/css">
			.st0{fill:#9FAFBF;}
			.st1{fill:#55A6F6;}
		</style>
		<rect x="3" y="3" class="st0" width="9" height="9"/>
		<polygon class="st1" points="13,7 13,13 7,13 7,16 13,16 14,16 16,16 16,7 "/>
	</svg>

	<svg id="icon-arrange-front" viewBox="0 0 19 19">
		<style type="text/css">
			.st0{fill:#55A6F6;}
			.st1{fill:#9FAFBF;}
		</style>
		<rect x="3" y="3" class="st0" width="9" height="9"/>
		<polygon class="st1" points="13,7 13,13 7,13 7,16 13,16 14,16 16,16 16,7 "/>
	</svg>

	<svg id="icon-arrange-backward" viewBox="0 0 19 19">
		<style type="text/css">
			.st0{fill:#9FAFBF;}
			.st1{fill:#55A6F6;}
		</style>
		<rect x="3" y="3" class="st0" width="9" height="9"/>
	<polygon class="st1" points="13,7 13,13 7,13 7,16 13,16 14,16 16,16 16,7 "/>
	<path class="st1" d="M1.3,8.9c-0.5,1.2-0.2,5,3,4.4l-0.1-1.4l2.4,2l-2,2.4l-0.1-1.4C0.1,15.3-0.1,10.8,1.3,8.9z"/>
	</svg>

	<svg id="icon-arrange-forward" viewBox="0 0 19 19">
		<style type="text/css">
			.st0{fill:#55A6F6;}
			.st1{fill:#9FAFBF;}
		</style>
		<rect x="3" y="3" class="st0" width="9" height="9"/>
		<polygon class="st1" points="13,7 13,13 7,13 7,16 13,16 14,16 16,16 16,7 "/>
		<path class="st0" d="M16.9,9.6c0.7-1.1,1-4.9-2.2-4.8l-0.1,1.4l-2-2.3l2.3-2l-0.1,1.4C19.2,3.4,18.6,8,16.9,9.6"/>
	</svg>

	<svg id="icon-gridlines-horizontal" viewBox="0 0 19 19">
		<style type="text/css">
			.st0{opacity:.4;}
		</style>
		<rect x="0" y="3" class="st0" width="1" height="13"/>
		<rect x="1" y="3" class="st0" width="17" height="1"/>
		<rect x="18" y="3" class="st0" width="1" height="13"/>
		<rect x="1" y="15" class="st0" width="17" height="1"/>
		<rect x="6" y="4" class="st0" width="1" height="11"/>
		<rect x="12" y="4" class="st0" width="1" height="11"/>
		<rect x="1" y="11" width="17" height="1"/>
		<rect x="1" y="7" width="17" height="1"/>
	</svg>

	<svg id="icon-gridlines-vertical" viewBox="0 0 19 19">
		<style type="text/css">
			.st0{opacity:.4;}
		</style>
		<rect x="0" y="3" class="st0" width="1" height="13"/>
		<rect x="1" y="3" class="st0" width="17" height="1"/>
		<rect x="18" y="3" class="st0" width="1" height="13"/>
		<rect x="1" y="15" class="st0" width="17" height="1"/>
		<rect x="6" y="4" width="1" height="11"/>
		<rect x="12" y="4" width="1" height="11"/>
		<rect x="1" y="11" class="st0" width="17" height="1"/>
		<rect x="1" y="7" class="st0" width="17" height="1"/>
	</svg>

	<svg id="icon-row-gridlines" viewBox="0 0 19 19">
		<style type="text/css">
			.st0{opacity:.4;}
			.st1{opacity:.3;}
		</style>
		<rect x="0" y="3" class="st0" width="1" height="13"/>
		<rect x="1" y="3" class="st0" width="17" height="1"/>
		<rect x="18" y="3" class="st0" width="1" height="13"/>
		<rect x="1" y="15" class="st0" width="17" height="1"/>
		<rect x="6" y="4" class="st0" width="1" height="11"/>
		<rect x="12" y="4" class="st0" width="1" height="11"/>
		<rect x="7" y="11" class="st0" width="11" height="1"/>
		<rect x="7" y="7" class="st0" width="11" height="1"/>
		<rect x="1" y="4" class="st1" width="5" height="11"/>
		<rect x="0" y="7" width="7" height="1"/>
		<rect x="0" y="11" width="7" height="1"/>
	</svg>

	<svg id="icon-column-gridlines" viewBox="0 0 19 19">
		<style type="text/css">
			.st0{opacity:.4;}
			.st1{opacity:.3;}
		</style>
		<rect x="0" y="3" class="st0" width="1" height="13"/>
		<rect x="1" y="3" class="st0" width="17" height="1"/>
		<rect x="18" y="3" class="st0" width="1" height="13"/>
		<rect x="1" y="15" class="st0" width="17" height="1"/>
		<rect x="6" y="8" class="st0" width="1" height="7"/>
		<rect x="12" y="8" class="st0" width="1" height="7"/>
		<rect x="1" y="11" class="st0" width="17" height="1"/>
		<rect x="1" y="7" class="st0" width="17" height="1"/>
		<rect x="1" y="4" class="st1" width="17" height="3"/>
		<rect x="6" y="3" width="1" height="5"/>
		<rect x="12" y="3" width="1" height="5"/>
	</svg>

	<svg id="icon-footer-gridlines" viewBox="0 0 19 19">
		<style type="text/css">
			.st0{opacity:.4;}
			.st1{opacity:.3;}
		</style>
		<rect x="0" y="3" class="st0" width="1" height="13"/>
		<rect x="1" y="3" class="st0" width="17" height="1"/>
		<rect x="18" y="3" class="st0" width="1" height="13"/>
		<rect x="1" y="15" class="st0" width="17" height="1"/>
		<rect x="6" y="4" class="st0" width="1" height="7"/>
		<rect x="12" y="4" class="st0" width="1" height="7"/>
		<rect x="1" y="11" class="st0" width="17" height="1"/>
		<rect x="1" y="7" class="st0" width="17" height="1"/>
		<rect x="1" y="12" class="st1" width="17" height="3"/>
		<rect x="6" y="11" width="1" height="5"/>
		<rect x="12" y="11" width="1" height="5"/>
	</svg>

	<svg id="icon-column-cells" viewBox="0 0 19 19">
		<style type="text/css">
			.st0{fill:#666;}
			.st1{opacity:.3;}
		</style>
		<rect y="4" class="st0" width="19" height="1"/>
		<rect y="14" class="st0" width="19" height="1"/>
		<rect y="5" class="st0" width="1" height="9.1"/>
		<rect x="18" y="5" class="st0" width="1" height="9.1"/>
		<rect x="6" y="5" class="st0" width="1" height="9"/>
		<rect x="12" y="5" class="st0" width="1" height="9"/>
		<rect x="1" y="9" class="st0" width="17" height="1"/>
		<rect x="1" y="5" class="st1" width="5" height="9"/>
	</svg>

	<svg id="icon-row-cells" viewBox="0 0 19 19">
		<style type="text/css">
			.st0{fill:#666;}
			.st1{opacity:.3;}
		</style>
		<rect y="4" class="st0" width="19" height="1"/>
		<rect y="14" class="st0" width="19" height="1"/>
		<rect y="5" class="st0" width="1" height="9.1"/>
		<rect x="18" y="5" class="st0" width="1" height="9.1"/>
		<rect x="6" y="9" class="st0" width="1" height="5"/>
		<rect x="12" y="9" class="st0" width="1" height="5"/>
		<rect x="1" y="9" class="st0" width="17" height="1"/>
		<rect x="1" y="5" class="st1" width="17" height="4"/>
	</svg>

	<svg id="icon-foot-cells" viewBox="0 0 19 19">
		<style type="text/css">
			.st0{fill:#666;}
			.st1{opacity:.3;}
		</style>
		<rect y="4" class="st0" width="19" height="1"/>
		<rect y="14" class="st0" width="19" height="1"/>
		<rect y="5" class="st0" width="1" height="9.1"/>
		<rect x="18" y="5" class="st0" width="1" height="9.1"/>
		<rect x="6" y="5" class="st0" width="1" height="5"/>
		<rect x="12" y="5" class="st0" width="1" height="5"/>
		<rect x="1" y="9" class="st0" width="17" height="1"/>
		<rect x="1" y="10" class="st1" width="17" height="4"/>
	</svg>

	<svg id="icon-valign-top" viewBox="0 0 19 19">
		<style type="text/css">
			.st0{fill:#333333;}
			.st1{opacity:.35;}
		</style>
		<rect x="9" y="6" class="st1" width="1" height="9"/>
		<rect x="4" y="4" class="st0" width="11" height="1"/>
		<rect x="6" y="6.5" class="st1" transform="matrix(0.7071 -0.7071 0.7071 0.7071 -2.5511 7.8913)" class="st0" width="4.6" height="1"/>
		<rect x="10.3" y="4.7" class="st1" transform="matrix(0.7071 -0.7071 0.7071 0.7071 -1.8109 9.6784)" class="st0" width="1" height="4.6"/>
	</svg>

	<svg id="icon-valign-middle" viewBox="0 0 19 19">
		<style type="text/css">
			.st0{fill:#333333;}
			.st1{opacity:.35;}
		</style>
		<rect x="9" y="2" class="st1" width="1" height="6"/>
		<rect x="9" y="11" class="st1" width="1" height="6"/>
		<rect x="4" y="9" class="st0" width="11" height="1"/>
		<rect x="8.5" y="6.5" class="st1" transform="matrix(0.7071 -0.7071 0.7071 0.7071 -1.8109 9.6784)" class="st0" width="4.6" height="1"/>
		<rect x="7.8" y="4.7" class="st1" transform="matrix(0.7071 -0.7071 0.7071 0.7071 -2.5511 7.8913)" class="st0" width="1" height="4.6"/>
		<rect x="6" y="11.5" class="st1" transform="matrix(0.7071 -0.7071 0.7071 0.7071 -6.0866 9.3558)" class="st0" width="4.6" height="1"/>
		<rect x="10.3" y="9.7" class="st1" transform="matrix(0.7071 -0.7071 0.7071 0.7071 -5.3464 11.1429)" class="st0" width="1" height="4.6"/>
	</svg>

	<svg id="icon-valign-bottom" viewBox="0 0 19 19">
		<style type="text/css">
			.st0{fill:#333333;}
			.st1{opacity:.35;}
		</style>
		<rect x="9" y="4" class="st1" width="1" height="9"/>
		<rect x="4" y="14" class="st0" width="11" height="1"/>
		<rect x="8.5" y="11.5" class="st1" transform="matrix(0.7071 -0.7071 0.7071 0.7071 -5.3464 11.1429)" class="st0" width="4.6" height="1"/>
		<rect x="7.8" y="9.7" class="st1" transform="matrix(0.7071 -0.7071 0.7071 0.7071 -6.0866 9.3558)" class="st0" width="1" height="4.6"/>
	</svg>

	<svg id="icon-border-1" viewBox="0 0 19 19">
		<style type="text/css">
			.st0{opacity:.3;}
		</style>
		<rect x="2" y="2" width="15" height="1"/>
		<rect x="3" y="9" class="st0" width="13" height="1"/>
		<rect x="2" y="16" width="15" height="1"/>
		<rect x="2" y="3" width="1" height="13"/>
		<rect x="16" y="3" width="1" height="13"/>
		<rect x="9" y="3" class="st0" width="1" height="13"/>
	</svg>

	<svg id="icon-border-2" viewBox="0 0 19 19">
		<style type="text/css">
			.st0{opacity:.3;}
		</style>
		<rect x="2" y="2" class="st0" width="15" height="1"/>
		<rect x="3" y="9" class="st1" width="13" height="1"/>
		<rect x="2" y="16" class="st0" width="15" height="1"/>
		<rect x="2" y="3" class="st0" width="1" height="13"/>
		<rect x="16" y="3" class="st0" width="1" height="13"/>
		<rect x="9" y="3" width="1" height="13"/>
	</svg>

	<svg id="icon-border-3" viewBox="0 0 19 19">
		<rect x="2" y="2" width="15" height="1"/>
		<rect x="3" y="9" width="13" height="1"/>
		<rect x="2" y="16" width="15" height="1"/>
		<rect x="2" y="3" width="1" height="13"/>
		<rect x="16" y="3" width="1" height="13"/>
		<rect x="9" y="3" width="1" height="13"/>
	</svg>

	<svg id="icon-border-4" viewBox="0 0 19 19">
		<style type="text/css">
			.st0{opacity:.3;}
		</style>
		<rect x="2" y="2" class="st0" width="15" height="1"/>
		<rect x="3" y="9" class="st0" width="13" height="1"/>
		<rect x="2" y="16" class="st0" width="15" height="1"/>
		<rect x="2" y="2" width="1" height="15"/>
		<rect x="16" y="3" class="st0" width="1" height="13"/>
		<rect x="9" y="3" class="st0" width="1" height="13"/>
	</svg>

	<svg id="icon-border-5" viewBox="0 0 19 19">
		<style type="text/css">
			.st0{opacity:.3;}
		</style>
		<rect x="2" y="2" class="st0" width="15" height="1"/>
		<rect x="3" y="9" class="st0" width="13" height="1"/>
		<rect x="2" y="16" class="st0" width="15" height="1"/>
		<rect x="2" y="2" class="st0" width="1" height="15"/>
		<rect x="16" y="2" class="st0" width="1" height="15"/>
		<rect x="9" y="2" width="1" height="15"/>
	</svg>

	<svg id="icon-border-6" viewBox="0 0 19 19">
		<style type="text/css">
			.st0{opacity:.3;}
		</style>
		<rect x="2" y="2" class="st0" width="15" height="1"/>
		<rect x="3" y="9" class="st0" width="13" height="1"/>
		<rect x="2" y="16" class="st0" width="15" height="1"/>
		<rect x="2" y="2" class="st0" width="1" height="15"/>
		<rect x="16" y="2" width="1" height="15"/>
		<rect x="9" y="3" class="st0" width="1" height="13"/>
	</svg>

	<svg id="icon-border-7" viewBox="0 0 19 19">
		<style type="text/css">
			.st0{opacity:.3;}
		</style>
		<rect x="2" y="2" width="15" height="1"/>
		<rect x="3" y="9" class="st0" width="13" height="1"/>
		<rect x="2" y="16" class="st0" width="15" height="1"/>
		<rect x="2" y="2" class="st0" width="1" height="15"/>
		<rect x="16" y="2" class="st0" width="1" height="15"/>
		<rect x="9" y="3" class="st0" width="1" height="13"/>
	</svg>

	<svg id="icon-border-8" viewBox="0 0 19 19">
		<style type="text/css">
			.st0{opacity:.3;}
		</style>
		<rect x="2" y="2" class="st0" width="15" height="1"/>
		<rect x="2" y="9" width="15" height="1"/>
		<rect x="2" y="16" class="st0" width="15" height="1"/>
		<rect x="2" y="2" class="st0" width="1" height="15"/>
		<rect x="16" y="2" class="st0" width="1" height="15"/>
		<rect x="9" y="3" class="st0" width="1" height="13"/>
	</svg>

	<svg id="icon-border-9" viewBox="0 0 19 19">
		<style type="text/css">
			.st0{opacity:.3;}
		</style>
		<rect x="2" y="2" class="st0" width="15" height="1"/>
		<rect x="3" y="9" class="st0" width="13" height="1"/>
		<rect x="2" y="16" width="15" height="1"/>
		<rect x="2" y="2" class="st0" width="1" height="15"/>
		<rect x="16" y="2" class="st0" width="1" height="15"/>
		<rect x="9" y="3" class="st0" width="1" height="13"/>
	</svg>

	<svg id="icon-table-style-1" viewBox="0 0 780 580">
		<rect x="4" y="4" fill="#fff" stroke="#000" stroke-width="8" width="760" height="560"/>
		<line opacity="0.75" stroke="#000" stroke-width="8" x1="0" y1="116" x2="768" y2="116"/>
		<line opacity="0.25" stroke="#000" stroke-width="8" x1="0" y1="226" x2="768" y2="226"/>
		<line opacity="0.25" stroke="#000" stroke-width="8" x1="0" y1="336" x2="768" y2="336"/>
		<line opacity="0.75" stroke="#000" stroke-width="8" x1="0" y1="454" x2="768" y2="454"/>
		<line opacity="0.25" stroke="#000" stroke-width="8" x1="194" y1="0" x2="194" y2="564"/>
		<line opacity="0.25" stroke="#000" stroke-width="8" x1="384" y1="0" x2="384" y2="564"/>
		<line opacity="0.25" stroke="#000" stroke-width="8" x1="574" y1="0" x2="574" y2="564"/>
		<line opacity="0.75" stroke="#000" stroke-width="8" x1="194" y1="116" x2="194" y2="454"/>
		<rect opacity="0.25" x="4" y="4" fill="#333" width="760" height="112"/>
		<rect opacity="0.25" x="4" y="116" fill="#888" width="190" height="338"/>
		<rect opacity="0.25" x="4" y="454" fill="#ccc" width="760" height="110"/>
	</svg>

	<svg id="icon-table-style-2" viewBox="0 0 780 580">
		<rect x="4" y="4" fill="#fff" stroke="#000" stroke-width="8" width="760" height="560"/>
		<line opacity="0.75" stroke="#000" stroke-width="8" x1="0" y1="116" x2="768" y2="116"/>
		<line opacity="0.15" stroke="#000" stroke-width="8" x1="0" y1="226" x2="768" y2="226"/>
		<line opacity="0.15" stroke="#000" stroke-width="8" x1="0" y1="336" x2="768" y2="336"/>
		<line opacity="0.75" stroke="#000" stroke-width="8" x1="0" y1="454" x2="768" y2="454"/>
		<line stroke="#000" stroke-width="8" x1="194" y1="116" x2="194" y2="454"/>
		<rect opacity="0.75" x="4" y="116" fill="#17b" width="190" height="338"/>
		<rect opacity="0.25" x="194" y="226" fill="#ccc" width="570" height="110"/>
	</svg>

	<svg id="icon-table-style-3" viewBox="0 0 780 580">
		<rect x="4" y="4" fill="#fff" stroke="#000" stroke-width="8" width="760" height="560"/>
		<line opacity="0.75" stroke="#000" stroke-width="8" x1="0" y1="116" x2="768" y2="116"/>
		<line opacity="0.25" stroke="#000" stroke-width="8" x1="0" y1="226" x2="768" y2="226"/>
		<line opacity="0.25" stroke="#000" stroke-width="8" x1="0" y1="336" x2="768" y2="336"/>
		<line opacity="0.75" stroke="#000" stroke-width="8" x1="0" y1="454" x2="768" y2="454"/>
		<line opacity="0.25" stroke="#000" stroke-width="8" x1="194" y1="0" x2="194" y2="564"/>
		<line opacity="0.25" stroke="#000" stroke-width="8" x1="384" y1="0" x2="384" y2="564"/>
		<line opacity="0.25" stroke="#000" stroke-width="8" x1="574" y1="0" x2="574" y2="564"/>
		<line opacity="0.75" stroke="#000" stroke-width="8" x1="194" y1="116" x2="194" y2="454"/>
		<rect opacity="0.65" x="4" y="4" fill="#272" width="760" height="112"/>
		<rect opacity="0.5" x="4" y="116" fill="#888" width="190" height="338"/>
		<rect opacity="0.65" x="4" y="454" fill="#2a2" width="760" height="110"/>
		<rect opacity="0.25" x="194" y="226" fill="#ccc" width="570" height="110"/>
	</svg>

	<svg id="icon-table-style-4" viewBox="0 0 780 580">
		<rect x="4" y="4" fill="#fff" stroke="#000" stroke-width="8" width="760" height="560"/>
		<line opacity="0.75" stroke="#000" stroke-width="8" x1="0" y1="116" x2="768" y2="116"/>
		<line opacity="0.25" stroke="#000" stroke-width="8" x1="0" y1="226" x2="768" y2="226"/>
		<line opacity="0.25" stroke="#000" stroke-width="8" x1="0" y1="336" x2="768" y2="336"/>
		<line opacity="0.75" stroke="#000" stroke-width="8" x1="0" y1="454" x2="768" y2="454"/>
		<line opacity="0.25" stroke="#000" stroke-width="8" x1="194" y1="0" x2="194" y2="564"/>
		<line opacity="0.25" stroke="#000" stroke-width="8" x1="384" y1="0" x2="384" y2="564"/>
		<line opacity="0.25" stroke="#000" stroke-width="8" x1="574" y1="0" x2="574" y2="564"/>
		<line opacity="0.75" stroke="#000" stroke-width="8" x1="194" y1="116" x2="194" y2="454"/>
		<rect opacity="0.65" x="4" y="4" fill="#158" width="760" height="112"/>
		<rect opacity="0.25" x="4" y="116" fill="#ddd" width="190" height="338"/>
		<rect opacity="0.5" x="4" y="454" fill="#bde" width="760" height="110"/>
		<rect opacity="0.25" x="194" y="226" fill="#ccc" width="570" height="110"/>
	</svg>

	<svg id="icon-table-style-5" viewBox="0 0 780 580">
		<rect x="4" y="4" fill="#fff" stroke="#000" stroke-width="8" width="760" height="560"/>
		<line opacity="0.75" stroke="#000" stroke-width="8" x1="0" y1="116" x2="768" y2="116"/>
		<line opacity="0.15" stroke="#000" stroke-width="8" x1="0" y1="226" x2="768" y2="226"/>
		<line opacity="0.15" stroke="#000" stroke-width="8" x1="0" y1="336" x2="768" y2="336"/>
		<line opacity="0.75" stroke="#000" stroke-width="8" x1="0" y1="454" x2="768" y2="454"/>
		<line opacity="0.15" stroke="#000" stroke-width="8" x1="194" y1="0" x2="194" y2="564"/>
		<line opacity="0.15" stroke="#000" stroke-width="8" x1="384" y1="0" x2="384" y2="564"/>
		<line opacity="0.15" stroke="#000" stroke-width="8" x1="574" y1="0" x2="574" y2="564"/>
		<line opacity="0.75" stroke="#000" stroke-width="8" x1="194" y1="116" x2="194" y2="454"/>
		<line opacity="0.85" stroke="#000" stroke-width="8" stroke-dasharray="24,24" x1="384" y1="134" x2="384" y2="442"/>
		<line opacity="0.85" stroke="#000" stroke-width="8" stroke-dasharray="24,24" x1="574" y1="134" x2="574" y2="442"/>
		<line opacity="0.85" stroke="#000" stroke-width="8" stroke-dasharray="24,24" x1="746" y1="226" x2="205" y2="226"/>
		<line opacity="0.85" stroke="#000" stroke-width="8" stroke-dasharray="24,24" x1="746" y1="336" x2="205" y2="336"/>
		<rect opacity="0.5" x="4" y="4" fill="#fb0" width="760" height="112"/>
		<rect opacity="0.25" x="4" y="116" fill="#666" width="190" height="338"/>
		<rect opacity="0.5" x="4" y="454" fill="#ea2" width="760" height="110"/>
		<rect opacity="0.25" x="194" y="226" fill="#ccc" width="570" height="110"/>
	</svg>

	<svg id="icon-table-style-6" viewBox="0 0 780 580">
		<rect x="4" y="4" fill="#fff" stroke="#000" stroke-width="8" width="760" height="560"/>
		<line opacity="0.75" stroke="#000" stroke-width="8" x1="0" y1="116" x2="768" y2="116"/>
		<line opacity="0.15" stroke="#000" stroke-width="8" x1="0" y1="226" x2="768" y2="226"/>
		<line opacity="0.15" stroke="#000" stroke-width="8" x1="0" y1="336" x2="768" y2="336"/>
		<line opacity="0.75" stroke="#000" stroke-width="8" x1="0" y1="454" x2="768" y2="454"/>
		<line opacity="0.15" stroke="#000" stroke-width="8" x1="194" y1="0" x2="194" y2="564"/>
		<line opacity="0.15" stroke="#000" stroke-width="8" x1="384" y1="0" x2="384" y2="564"/>
		<line opacity="0.15" stroke="#000" stroke-width="8" x1="574" y1="0" x2="574" y2="564"/>
		<line opacity="0.75" stroke="#000" stroke-width="8" x1="194" y1="116" x2="194" y2="454"/>
		<line opacity="0.85" stroke="#000" stroke-width="8" stroke-dasharray="24,24" x1="384" y1="134" x2="384" y2="442"/>
		<line opacity="0.85" stroke="#000" stroke-width="8" stroke-dasharray="24,24" x1="574" y1="134" x2="574" y2="442"/>
		<line opacity="0.85" stroke="#000" stroke-width="8" stroke-dasharray="24,24" x1="746" y1="226" x2="205" y2="226"/>
		<line opacity="0.85" stroke="#000" stroke-width="8" stroke-dasharray="24,24" x1="746" y1="336" x2="205" y2="336"/>
		<rect opacity="0.25" x="4" y="4" fill="#eee" width="760" height="112"/>
		<rect opacity="0.25" x="4" y="116" fill="#eee" width="190" height="338"/>
		<rect opacity="0.25" x="4" y="454" fill="#eee" width="760" height="110"/>
		<rect opacity="0.25" x="194" y="226" fill="#bbb" width="570" height="110"/>
	</svg>

	<svg id="icon-pie-style-1" viewBox="0 0 780 580">
		<path fill="#61D836" d="M390,0.791V290h-0.028v0.395H100.795C101.009,449.939,230.406,579.211,390,579.211 c159.727,0,289.21-129.484,289.21-289.21S549.727,0.791,390,0.791z"/>
		<path fill="#00A2FF" d="M390,0.735V290l234.001,170.083C658.759,412.348,679.265,353.57,679.265,290 C679.265,130.243,549.757,0.735,390,0.735z"/>
		<path fill="#F8BA00" d="M100.734,290H390L164.445,471.121h-0.002C124.586,421.547,100.734,358.559,100.734,290z"/>
		<path fill="#C24885" d="M389.972,1.186c-159.726,0-289.21,129.484-289.21,289.209h289.21V1.186z"/>
		<path fill="#FF2600" d="M100.734,290c0-63.538,20.485-122.29,55.212-170.014v0.001L390,290H100.734z"/>
		<path fill="#5F5F5F" d="M267.899,27.692L390,290V0.735C346.37,0.735,304.996,10.394,267.899,27.692 L267.899,27.692z"/>
	</svg>

	<svg id="icon-pie-style-2" viewBox="0 0 780 580">
		<path fill="#1ca4fc" d="M390,0.791V290h-0.028v0.395H100.795C101.009,449.939,230.406,579.211,390,579.211 c159.727,0,289.21-129.484,289.21-289.21S549.727,0.791,390,0.791z"/>
		<path fill="#5cc2fc" d="M390,0.735V290l234.001,170.083C658.759,412.348,679.265,353.57,679.265,290 C679.265,130.243,549.757,0.735,390,0.735z"/>
		<path fill="#0d77b8" d="M100.734,290H390L164.445,471.121h-0.002C124.586,421.547,100.734,358.559,100.734,290z"/>
		<path fill="#003560" d="M389.972,1.186c-159.726,0-289.21,129.484-289.21,289.209h289.21V1.186z"/>
		<path fill="#0d4d7e" d="M100.734,290c0-63.538,20.485-122.29,55.212-170.014v0.001L390,290H100.734z"/>
		<path fill="#001635" d="M267.899,27.692L390,290V0.735C346.37,0.735,304.996,10.394,267.899,27.692 L267.899,27.692z"/>
	</svg>

	<svg id="icon-pie-style-3" viewBox="0 0 780 580">
		<path fill="#0d7a76" d="M390,0.791V290h-0.028v0.395H100.795C101.009,449.939,230.406,579.211,390,579.211 c159.727,0,289.21-129.484,289.21-289.21S549.727,0.791,390,0.791z"/>
		<path fill="#66d642" d="M390,0.735V290l234.001,170.083C658.759,412.348,679.265,353.57,679.265,290 C679.265,130.243,549.757,0.735,390,0.735z"/>
		<path fill="#2aaf1c" d="M100.734,290H390L164.445,471.121h-0.002C124.586,421.547,100.734,358.559,100.734,290z"/>
		<path fill="#0d700d" d="M389.972,1.186c-159.726,0-289.21,129.484-289.21,289.209h289.21V1.186z"/>
		<path fill="#2ee6cf" d="M100.734,290c0-63.538,20.485-122.29,55.212-170.014v0.001L390,290H100.734z"/>
		<path fill="#16a69d" d="M267.899,27.692L390,290V0.735C346.37,0.735,304.996,10.394,267.899,27.692 L267.899,27.692z"/>
	</svg>

	<svg id="icon-pie-style-4" viewBox="0 0 780 580">
		<path fill="#fd9226" d="M390,0.791V290h-0.028v0.395H100.795C101.009,449.939,230.406,579.211,390,579.211 c159.727,0,289.21-129.484,289.21-289.21S549.727,0.791,390,0.791z"/>
		<path fill="#f6b92a" d="M390,0.735V290l234.001,170.083C658.759,412.348,679.265,353.57,679.265,290 C679.265,130.243,549.757,0.735,390,0.735z"/>
		<path fill="#fc551c" d="M100.734,290H390L164.445,471.121h-0.002C124.586,421.547,100.734,358.559,100.734,290z"/>
		<path fill="#b31c0d" d="M389.972,1.186c-159.726,0-289.21,129.484-289.21,289.209h289.21V1.186z"/>
		<path fill="#eb261c" d="M100.734,290c0-63.538,20.485-122.29,55.212-170.014v0.001L390,290H100.734z"/>
		<path fill="#870d0d" d="M267.899,27.692L390,290V0.735C346.37,0.735,304.996,10.394,267.899,27.692 L267.899,27.692z"/>
	</svg>

	<svg id="icon-pie-style-5" viewBox="0 0 780 580">
		<path fill="#82458e" d="M390,0.791V290h-0.028v0.395H100.795C101.009,449.939,230.406,579.211,390,579.211 c159.727,0,289.21-129.484,289.21-289.21S549.727,0.791,390,0.791z"/>
		<path fill="#c92e7a" d="M390,0.735V290l234.001,170.083C658.759,412.348,679.265,353.57,679.265,290 C679.265,130.243,549.757,0.735,390,0.735z"/>
		<path fill="#ed62a6" d="M100.734,290H390L164.445,471.121h-0.002C124.586,421.547,100.734,358.559,100.734,290z"/>
		<path fill="#971c5f" d="M389.972,1.186c-159.726,0-289.21,129.484-289.21,289.209h289.21V1.186z"/>
		<path fill="#9c73c9" d="M100.734,290c0-63.538,20.485-122.29,55.212-170.014v0.001L390,290H100.734z"/>
		<path fill="#be98e6" d="M267.899,27.692L390,290V0.735C346.37,0.735,304.996,10.394,267.899,27.692 L267.899,27.692z"/>
	</svg>

	<svg id="icon-pie-style-6" viewBox="0 0 780 580">
		<path fill="#798089" d="M390,0.791V290h-0.028v0.395H100.795C101.009,449.939,230.406,579.211,390,579.211 c159.727,0,289.21-129.484,289.21-289.21S549.727,0.791,390,0.791z"/>
		<path fill="#55585f" d="M390,0.735V290l234.001,170.083C658.759,412.348,679.265,353.57,679.265,290 C679.265,130.243,549.757,0.735,390,0.735z"/>
		<path fill="#96a0aa" d="M100.734,290H390L164.445,471.121h-0.002C124.586,421.547,100.734,358.559,100.734,290z"/>
		<path fill="#b5b5c1" d="M389.972,1.186c-159.726,0-289.21,129.484-289.21,289.209h289.21V1.186z"/>
		<path fill="#1c1c1c" d="M100.734,290c0-63.538,20.485-122.29,55.212-170.014v0.001L390,290H100.734z"/>
		<path fill="#323232" d="M267.899,27.692L390,290V0.735C346.37,0.735,304.996,10.394,267.899,27.692 L267.899,27.692z"/>
	</svg>

	<svg id="icon-chart-columns-1" viewBox="0 0 780 580">
		<path fill="#FF6A00" d="M658.916,513.004c0,1.209-0.979,2.187-2.187,2.187H548.87c-1.208,0-2.187-0.978-2.187-2.187V66.997 c0-1.209,0.979-2.188,2.187-2.188h107.859c1.208,0,2.187,0.979,2.187,2.188V513.004z"/>
		<path fill="#F6C100" d="M517.049,513.004c0,1.213-0.978,2.187-2.186,2.187h-107.86c-1.208,0-2.187-0.974-2.187-2.187V154.453 c0-1.208,0.979-2.187,2.187-2.187h107.86c1.208,0,2.186,0.979,2.186,2.187V513.004z"/>
		<path fill="#6EBB46" d="M375.182,513.004c0,1.213-0.978,2.187-2.186,2.187H265.137c-1.209,0-2.187-0.974-2.187-2.187V250.651 c0-1.209,0.978-2.187,2.187-2.187h107.859c1.208,0,2.186,0.978,2.186,2.187V513.004z"/>
		<path fill="#00A3D7" d="M233.315,513.004c0,1.213-0.979,2.187-2.187,2.187H123.27c-1.209,0-2.187-0.974-2.187-2.187v-174.9 c0-1.209,0.978-2.187,2.187-2.187h107.859c1.208,0,2.187,0.978,2.187,2.187V513.004z"/>
	</svg>

	<svg id="icon-chart-columns-2" viewBox="0 0 780 580">
		<path fill="#5e5e64" d="M658.916,513.004c0,1.209-0.979,2.187-2.187,2.187H548.87c-1.208,0-2.187-0.978-2.187-2.187V66.997 c0-1.209,0.979-2.188,2.187-2.188h107.859c1.208,0,2.187,0.979,2.187,2.188V513.004z"/>
		<path fill="#87cb85" d="M517.049,513.004c0,1.213-0.978,2.187-2.186,2.187h-107.86c-1.208,0-2.187-0.974-2.187-2.187V154.453 c0-1.208,0.979-2.187,2.187-2.187h107.86c1.208,0,2.186,0.979,2.186,2.187V513.004z"/>
		<path fill="#444444" d="M375.182,513.004c0,1.213-0.978,2.187-2.186,2.187H265.137c-1.209,0-2.187-0.974-2.187-2.187V250.651 c0-1.209,0.978-2.187,2.187-2.187h107.859c1.208,0,2.186,0.978,2.186,2.187V513.004z"/>
		<path fill="#449d20" d="M233.315,513.004c0,1.213-0.979,2.187-2.187,2.187H123.27c-1.209,0-2.187-0.974-2.187-2.187v-174.9 c0-1.209,0.978-2.187,2.187-2.187h107.859c1.208,0,2.187,0.978,2.187,2.187V513.004z"/>
	</svg>

	<svg id="icon-chart-columns-3" viewBox="0 0 780 580">
		<path fill="#b4aea7" d="M658.916,513.004c0,1.209-0.979,2.187-2.187,2.187H548.87c-1.208,0-2.187-0.978-2.187-2.187V66.997 c0-1.209,0.979-2.188,2.187-2.188h107.859c1.208,0,2.187,0.979,2.187,2.188V513.004z"/>
		<path fill="#fd8136" d="M517.049,513.004c0,1.213-0.978,2.187-2.186,2.187h-107.86c-1.208,0-2.187-0.974-2.187-2.187V154.453 c0-1.208,0.979-2.187,2.187-2.187h107.86c1.208,0,2.186,0.979,2.186,2.187V513.004z"/>
		<path fill="#89847f" d="M375.182,513.004c0,1.213-0.978,2.187-2.186,2.187H265.137c-1.209,0-2.187-0.974-2.187-2.187V250.651 c0-1.209,0.978-2.187,2.187-2.187h107.859c1.208,0,2.186,0.978,2.186,2.187V513.004z"/>
		<path fill="#fd9d4c" d="M233.315,513.004c0,1.213-0.979,2.187-2.187,2.187H123.27c-1.209,0-2.187-0.974-2.187-2.187v-174.9 c0-1.209,0.978-2.187,2.187-2.187h107.859c1.208,0,2.187,0.978,2.187,2.187V513.004z"/>
	</svg>

	<svg id="icon-chart-columns-4" viewBox="0 0 780 580">
		<path fill="#53b7dc" d="M658.916,513.004c0,1.209-0.979,2.187-2.187,2.187H548.87c-1.208,0-2.187-0.978-2.187-2.187V66.997 c0-1.209,0.979-2.188,2.187-2.188h107.859c1.208,0,2.187,0.979,2.187,2.188V513.004z"/>
		<path fill="#30a2b7" d="M517.049,513.004c0,1.213-0.978,2.187-2.186,2.187h-107.86c-1.208,0-2.187-0.974-2.187-2.187V154.453 c0-1.208,0.979-2.187,2.187-2.187h107.86c1.208,0,2.186,0.979,2.186,2.187V513.004z"/>
		<path fill="#73cced" d="M375.182,513.004c0,1.213-0.978,2.187-2.186,2.187H265.137c-1.209,0-2.187-0.974-2.187-2.187V250.651 c0-1.209,0.978-2.187,2.187-2.187h107.859c1.208,0,2.186,0.978,2.186,2.187V513.004z"/>
		<path fill="#2ca1cb" d="M233.315,513.004c0,1.213-0.979,2.187-2.187,2.187H123.27c-1.209,0-2.187-0.974-2.187-2.187v-174.9 c0-1.209,0.978-2.187,2.187-2.187h107.859c1.208,0,2.187,0.978,2.187,2.187V513.004z"/>
	</svg>

	<svg id="icon-chart-columns-5" viewBox="0 0 780 580">
		<path fill="#232323" d="M658.916,513.004c0,1.209-0.979,2.187-2.187,2.187H548.87c-1.208,0-2.187-0.978-2.187-2.187V66.997 c0-1.209,0.979-2.188,2.187-2.188h107.859c1.208,0,2.187,0.979,2.187,2.188V513.004z"/>
		<path fill="#606060" d="M517.049,513.004c0,1.213-0.978,2.187-2.186,2.187h-107.86c-1.208,0-2.187-0.974-2.187-2.187V154.453 c0-1.208,0.979-2.187,2.187-2.187h107.86c1.208,0,2.186,0.979,2.186,2.187V513.004z"/>
		<path fill="#aea9a2" d="M375.182,513.004c0,1.213-0.978,2.187-2.186,2.187H265.137c-1.209,0-2.187-0.974-2.187-2.187V250.651 c0-1.209,0.978-2.187,2.187-2.187h107.859c1.208,0,2.186,0.978,2.186,2.187V513.004z"/>
		<path fill="#89847f" d="M233.315,513.004c0,1.213-0.979,2.187-2.187,2.187H123.27c-1.209,0-2.187-0.974-2.187-2.187v-174.9 c0-1.209,0.978-2.187,2.187-2.187h107.859c1.208,0,2.187,0.978,2.187,2.187V513.004z"/>
	</svg>

	<svg id="icon-chart-columns-6" viewBox="0 0 780 580">
		<path fill="#eda557" d="M658.916,513.004c0,1.209-0.979,2.187-2.187,2.187H548.87c-1.208,0-2.187-0.978-2.187-2.187V66.997 c0-1.209,0.979-2.188,2.187-2.188h107.859c1.208,0,2.187,0.979,2.187,2.188V513.004z"/>
		<path fill="#7fbf60" d="M517.049,513.004c0,1.213-0.978,2.187-2.186,2.187h-107.86c-1.208,0-2.187-0.974-2.187-2.187V154.453 c0-1.208,0.979-2.187,2.187-2.187h107.86c1.208,0,2.186,0.979,2.186,2.187V513.004z"/>
		<path fill="#47bfed" d="M375.182,513.004c0,1.213-0.978,2.187-2.186,2.187H265.137c-1.209,0-2.187-0.974-2.187-2.187V250.651 c0-1.209,0.978-2.187,2.187-2.187h107.859c1.208,0,2.186,0.978,2.186,2.187V513.004z"/>
		<path fill="#626bb9" d="M233.315,513.004c0,1.213-0.979,2.187-2.187,2.187H123.27c-1.209,0-2.187-0.974-2.187-2.187v-174.9 c0-1.209,0.978-2.187,2.187-2.187h107.859c1.208,0,2.187,0.978,2.187,2.187V513.004z"/>
	</svg>

	<svg id="icon-bars-style-1" viewBox="0 0 780 580">
		<path fill="#FF6A00" d="M719.907,531.965c0,1.374-1.115,2.487-2.488,2.487H62.579c-1.374,0-2.486-1.113-2.486-2.487V430.839 c0-1.375,1.112-2.486,2.486-2.486h654.84c1.373,0,2.488,1.111,2.488,2.486V531.965z"/>
		<path fill="#F6C100" d="M580.647,404.364c0,1.374-1.112,2.485-2.485,2.485H62.579c-1.374,0-2.486-1.111-2.486-2.485V303.236 c0-1.373,1.112-2.486,2.486-2.486h515.583c1.373,0,2.485,1.113,2.485,2.486V404.364z"/>
		<path fill="#6EBB46" d="M451.338,276.763c0,1.373-1.112,2.485-2.486,2.485H62.579c-1.374,0-2.486-1.112-2.486-2.485V175.636 c0-1.374,1.112-2.486,2.486-2.486h386.272c1.374,0,2.486,1.112,2.486,2.486V276.763z"/>
		<path fill="#00A3D7" d="M312.081,149.161c0,1.374-1.113,2.486-2.488,2.486H62.579c-1.374,0-2.486-1.112-2.486-2.486V48.034 c0-1.373,1.112-2.486,2.486-2.486h247.014c1.375,0,2.488,1.113,2.488,2.486V149.161z"/>
	</svg>

	<svg id="icon-bars-style-2" viewBox="0 0 780 580">
		<path fill="#5e5e64" d="M719.907,531.965c0,1.374-1.115,2.487-2.488,2.487H62.579c-1.374,0-2.486-1.113-2.486-2.487V430.839 c0-1.375,1.112-2.486,2.486-2.486h654.84c1.373,0,2.488,1.111,2.488,2.486V531.965z"/>
		<path fill="#87cb85" d="M580.647,404.364c0,1.374-1.112,2.485-2.485,2.485H62.579c-1.374,0-2.486-1.111-2.486-2.485V303.236 c0-1.373,1.112-2.486,2.486-2.486h515.583c1.373,0,2.485,1.113,2.485,2.486V404.364z"/>
		<path fill="#444444" d="M451.338,276.763c0,1.373-1.112,2.485-2.486,2.485H62.579c-1.374,0-2.486-1.112-2.486-2.485V175.636 c0-1.374,1.112-2.486,2.486-2.486h386.272c1.374,0,2.486,1.112,2.486,2.486V276.763z"/>
		<path fill="#449d20" d="M312.081,149.161c0,1.374-1.113,2.486-2.488,2.486H62.579c-1.374,0-2.486-1.112-2.486-2.486V48.034 c0-1.373,1.112-2.486,2.486-2.486h247.014c1.375,0,2.488,1.113,2.488,2.486V149.161z"/>
	</svg>

	<svg id="icon-bars-style-3" viewBox="0 0 780 580">
		<path fill="#b4aea7" d="M719.907,531.965c0,1.374-1.115,2.487-2.488,2.487H62.579c-1.374,0-2.486-1.113-2.486-2.487V430.839 c0-1.375,1.112-2.486,2.486-2.486h654.84c1.373,0,2.488,1.111,2.488,2.486V531.965z"/>
		<path fill="#fd8136" d="M580.647,404.364c0,1.374-1.112,2.485-2.485,2.485H62.579c-1.374,0-2.486-1.111-2.486-2.485V303.236 c0-1.373,1.112-2.486,2.486-2.486h515.583c1.373,0,2.485,1.113,2.485,2.486V404.364z"/>
		<path fill="#89847f" d="M451.338,276.763c0,1.373-1.112,2.485-2.486,2.485H62.579c-1.374,0-2.486-1.112-2.486-2.485V175.636 c0-1.374,1.112-2.486,2.486-2.486h386.272c1.374,0,2.486,1.112,2.486,2.486V276.763z"/>
		<path fill="#fd9d4c" d="M312.081,149.161c0,1.374-1.113,2.486-2.488,2.486H62.579c-1.374,0-2.486-1.112-2.486-2.486V48.034 c0-1.373,1.112-2.486,2.486-2.486h247.014c1.375,0,2.488,1.113,2.488,2.486V149.161z"/>
	</svg>

	<svg id="icon-bars-style-4" viewBox="0 0 780 580">
		<path fill="#53b7dc" d="M719.907,531.965c0,1.374-1.115,2.487-2.488,2.487H62.579c-1.374,0-2.486-1.113-2.486-2.487V430.839 c0-1.375,1.112-2.486,2.486-2.486h654.84c1.373,0,2.488,1.111,2.488,2.486V531.965z"/>
		<path fill="#30a2b7" d="M580.647,404.364c0,1.374-1.112,2.485-2.485,2.485H62.579c-1.374,0-2.486-1.111-2.486-2.485V303.236 c0-1.373,1.112-2.486,2.486-2.486h515.583c1.373,0,2.485,1.113,2.485,2.486V404.364z"/>
		<path fill="#73cced" d="M451.338,276.763c0,1.373-1.112,2.485-2.486,2.485H62.579c-1.374,0-2.486-1.112-2.486-2.485V175.636 c0-1.374,1.112-2.486,2.486-2.486h386.272c1.374,0,2.486,1.112,2.486,2.486V276.763z"/>
		<path fill="#2ca1cb" d="M312.081,149.161c0,1.374-1.113,2.486-2.488,2.486H62.579c-1.374,0-2.486-1.112-2.486-2.486V48.034 c0-1.373,1.112-2.486,2.486-2.486h247.014c1.375,0,2.488,1.113,2.488,2.486V149.161z"/>
	</svg>

	<svg id="icon-bars-style-5" viewBox="0 0 780 580">
		<path fill="#232323" d="M719.907,531.965c0,1.374-1.115,2.487-2.488,2.487H62.579c-1.374,0-2.486-1.113-2.486-2.487V430.839 c0-1.375,1.112-2.486,2.486-2.486h654.84c1.373,0,2.488,1.111,2.488,2.486V531.965z"/>
		<path fill="#606060" d="M580.647,404.364c0,1.374-1.112,2.485-2.485,2.485H62.579c-1.374,0-2.486-1.111-2.486-2.485V303.236 c0-1.373,1.112-2.486,2.486-2.486h515.583c1.373,0,2.485,1.113,2.485,2.486V404.364z"/>
		<path fill="#aea9a2" d="M451.338,276.763c0,1.373-1.112,2.485-2.486,2.485H62.579c-1.374,0-2.486-1.112-2.486-2.485V175.636 c0-1.374,1.112-2.486,2.486-2.486h386.272c1.374,0,2.486,1.112,2.486,2.486V276.763z"/>
		<path fill="#89847f" d="M312.081,149.161c0,1.374-1.113,2.486-2.488,2.486H62.579c-1.374,0-2.486-1.112-2.486-2.486V48.034 c0-1.373,1.112-2.486,2.486-2.486h247.014c1.375,0,2.488,1.113,2.488,2.486V149.161z"/>
	</svg>

	<svg id="icon-bars-style-6" viewBox="0 0 780 580">
		<path fill="#eda557" d="M719.907,531.965c0,1.374-1.115,2.487-2.488,2.487H62.579c-1.374,0-2.486-1.113-2.486-2.487V430.839 c0-1.375,1.112-2.486,2.486-2.486h654.84c1.373,0,2.488,1.111,2.488,2.486V531.965z"/>
		<path fill="#7fbf60" d="M580.647,404.364c0,1.374-1.112,2.485-2.485,2.485H62.579c-1.374,0-2.486-1.111-2.486-2.485V303.236 c0-1.373,1.112-2.486,2.486-2.486h515.583c1.373,0,2.485,1.113,2.485,2.486V404.364z"/>
		<path fill="#47bfed" d="M451.338,276.763c0,1.373-1.112,2.485-2.486,2.485H62.579c-1.374,0-2.486-1.112-2.486-2.485V175.636 c0-1.374,1.112-2.486,2.486-2.486h386.272c1.374,0,2.486,1.112,2.486,2.486V276.763z"/>
		<path fill="#626bb9" d="M312.081,149.161c0,1.374-1.113,2.486-2.488,2.486H62.579c-1.374,0-2.486-1.112-2.486-2.486V48.034 c0-1.373,1.112-2.486,2.486-2.486h247.014c1.375,0,2.488,1.113,2.488,2.486V149.161z"/>
	</svg>

	<svg id="icon-color-preset" viewBox="0 0 500 500">
		<linearGradient id="SVGID_1_" gradientUnits="userSpaceOnUse" x1="378.1631" y1="24.9146" x2="458.0664" y2="163.3112" gradientTransform="matrix(1.2821 0 0 -1.2821 -234.2436 280.9369)">
			<stop offset="0" style="stop-color:#FFFFFF;stop-opacity:0"/>
			<stop offset="1" style="stop-color:#FF0000;stop-opacity:0.7"/>
		</linearGradient>
		<linearGradient id="SVGID_2_" gradientUnits="userSpaceOnUse" x1="378.6152" y1="24.1309" x2="538.3961" y2="24.1309" gradientTransform="matrix(1.2821 0 0 -1.2821 -234.2436 280.9369)">
			<stop offset="0" style="stop-color:#FFFFFF;stop-opacity:0"/>
			<stop offset="1" style="stop-color:#0000FF;stop-opacity:0.7"/>
		</linearGradient>
		<linearGradient id="SVGID_3_" gradientUnits="userSpaceOnUse" x1="378.1621" y1="23.3457" x2="458.0658" y2="-115.0515" gradientTransform="matrix(1.2821 0 0 -1.2821 -234.2436 280.9369)">
			<stop offset="0" style="stop-color:#FFFFFF;stop-opacity:0"/>
			<stop offset="1" style="stop-color:#00AEEF;stop-opacity:0.7"/>
		</linearGradient>
		<linearGradient id="SVGID_4_" gradientUnits="userSpaceOnUse" x1="377.2578" y1="23.3467" x2="297.3542" y2="-115.0504" gradientTransform="matrix(1.2821 0 0 -1.2821 -234.2436 280.9369)">
			<stop offset="0" style="stop-color:#FFFFFF;stop-opacity:0"/>
			<stop offset="1" style="stop-color:#00FF00;stop-opacity:0.7"/>
		</linearGradient>
		<linearGradient id="SVGID_5_" gradientUnits="userSpaceOnUse" x1="376.8047" y1="24.1313" x2="217.0235" y2="24.1313" gradientTransform="matrix(1.2821 0 0 -1.2821 -234.2436 280.9369)">
			<stop offset="0" style="stop-color:#FFFFFF;stop-opacity:0"/>
			<stop offset="1" style="stop-color:#FFFF00;stop-opacity:0.7"/>
		</linearGradient>
		<linearGradient id="SVGID_6_" gradientUnits="userSpaceOnUse" x1="377.2588" y1="24.9131" x2="297.3553" y2="163.31" gradientTransform="matrix(1.2821 0 0 -1.2821 -234.2436 280.9369)">
			<stop offset="0" style="stop-color:#FFFFFF;stop-opacity:0"/>
			<stop offset="1" style="stop-color:#FF00FF;stop-opacity:0.7"/>
		</linearGradient>
		<circle fill="#fff" cx="250" cy="250" r="205.346"/>
		<circle fill="url(#SVGID_1_)" cx="250" cy="250" r="205.346"/>
		<circle fill="url(#SVGID_2_)" cx="250" cy="250" r="205.346"/>
		<circle fill="url(#SVGID_3_)" cx="250" cy="250" r="205.346"/>
		<circle fill="url(#SVGID_4_)" cx="250" cy="250" r="205.346"/>
		<circle fill="url(#SVGID_5_)" cx="250" cy="250" r="205.346"/>
		<circle fill="url(#SVGID_6_)" stroke="#000" stroke-width="20" cx="250" cy="250" r="205.346"/>
	</svg>

	<svg id="icon-add" viewBox="0 0 500 500">
		<line fill="none" stroke="#777" stroke-width="20" x1="390" y1="250" x2="110" y2="250"/>
		<line fill="none" stroke="#777" stroke-width="20" x1="250" y1="390" x2="250" y2="110"/>
	</svg>

	<svg id="tool-move" viewBox="0 0 500 500">
		<circle fill="none" stroke="#4591e8" stroke-width="40" cx="250" cy="250" r="110"/>
	</svg>

	<svg id="tool-h_resize" viewBox="0 0 500 500">
		<line fill="none" stroke="#4591e8" stroke-width="40" stroke-linecap="round" x1="195" y1="140" x2="195" y2="360"/>
		<line fill="none" stroke="#4591e8" stroke-width="40" stroke-linecap="round" x1="305" y1="140" x2="305" y2="360"/>
	</svg>

	<svg id="tool-v_resize" viewBox="0 0 500 500">
		<line fill="none" stroke="#4591e8" stroke-width="40" stroke-linecap="round" x1="360" y1="195" x2="140" y2="195"/>
		<line fill="none" stroke="#4591e8" stroke-width="40" stroke-linecap="round" x1="360" y1="305" x2="140" y2="305"/>
	</svg>

	<svg id="tool-resize" viewBox="0 0 500 500">
		<polyline fill="none" stroke="#4591e8" stroke-width="40" stroke-linecap="round" stroke-linejoin="round" points="130,330 330,330 330,130"/>
	</svg>

</svg>