
<svg id="shape-rounded" class="shape" viewBox="0 0 100 100" cache="false">
	<style type="text/css">
		.st3 {
			fill: transparent;
			stroke: #333333;
			stroke-width: 3;
			stroke: #000;
			x: 3px;
			y: 3px;
			width: calc( 100% - 6px );
			height: calc( 100% - 6px );
		}
	</style>
	<rect class="st3" width="0%" rx="15"/>
</svg>

<svg id="shape-rectangle" class="shape reflection" viewBox="0 0 100 100" cache="false">
	<style type="text/css">
		.st0{
			fill: url(#SVG-GR-1);
			stroke: #111111;
			stroke-width: 2;
		}
	</style>
	<linearGradient id="SVG-GR-1" x1=".5" y1=".1" x2=".5" y2=".9">
		<stop offset="0%" stop-color="#5555bb" />
		<stop offset="45%" stop-color="#eeeeff" />
		<stop offset="54%" stop-color="#555555" />
		<stop offset="100%" stop-color="#dddddd" />
	</linearGradient>
	<rect class="st0" x="3%" y="3%" width="94%" height="94%"/>
</svg>

<svg id="shape-disc" class="shape" viewBox="0 0 100 100" cache="false">
	<style type="text/css">
		.st1{
			fill: url(#SVG-GR-2);
			filter: drop-shadow(4px 4px 5px rgba(0,0,0,.5));
		}
	</style>
	<radialGradient id="SVG-GR-2" cx="0.25" cy="0.25" r="0.75">
		<stop offset="0%" stop-color="#aaddff"/>
		<stop offset="100%" stop-color="#336699"/>
	  </radialGradient>
	<circle class="st1" cx="50" cy="50" r="47"/>
</svg>

<svg id="shape-triangle" class="shape reflection" viewBox="0 0 100 100" cache="false">
	<style type="text/css">
		.st2{
			fill: #ea261f;
			stroke: #333333;
			stroke-width: 2;
			stroke: #000000;
			stroke-dasharray: 4,2;
		}
	</style>
	<polygon class="st2" points="97,97 50,3.6 3,97 "/>
</svg>



<svg id="shape-rectangle" viewBox="0 0 100 100">
	<style type="text/css">
		.st0{fill:#333;}
	</style>
	<rect class="st0" x="3" y="3" width="94" height="94"/>
</svg>

<svg id="shape-disc" viewBox="0 0 100 100">
	<style type="text/css">
		.st0{fill:#333;}
	</style>
	<circle class="st0" cx="50" cy="50" r="47"/>
</svg>

<svg id="shape-triangle" viewBox="0 0 100 100">
	<style type="text/css">
		.st0{fill:#333;}
	</style>
	<polygon class="st0" points="97,97 50,3.6 3,97 "/>
</svg>

<svg id="shape-hexagon" viewBox="0 0 100 100">
	<style type="text/css">
		.st0{fill:#333;}
	</style>
	<polygon class="st0" points="73.4,9.5 26.6,9.5 3.2,50 26.6,90.5 73.4,90.5 96.8,50 "/>
</svg>

<svg id="shape-star" viewBox="0 0 100 100">
	<style type="text/css">
		.st0{fill:#333;}
	</style>
	<path class="st0" d="M50,4.6L35.1,34L3,39.3l22.9,23.5L21,95.4l29-14.8l29,14.8l-4.9-32.6L97,39.3L64.9,34L50,4.6z"/>
</svg>

<svg id="shape-pentagon" viewBox="0 0 100 100">
	<style type="text/css">
		.st0{fill:#333;}
	</style>
	<polygon class="st0" points="23.2,96.9 3.1,43.3 50,3.1 96.9,43.3 76.8,96.9 "/>
</svg>


<svg id="icon-shape-style-1" viewBox="0 0 77 56">
	<style type="text/css">
		.st0{fill:#222222;}
	</style>
	<path class="st0" d="M67.3,53H9.7c-3.5,0-6.3-2.8-6.3-6.3V9.3C3.4,5.8,6.2,3,9.7,3h57.7c3.5,0,6.3,2.8,6.3,6.3v37.5C73.6,50.2,70.8,53,67.3,53z"/>
</svg>

<svg id="icon-shape-style-2" viewBox="0 0 77 56">
	<style type="text/css">
		.st0{fill:#1ba3fc;}
	</style>
	<path class="st0" d="M67.3,53H9.7c-3.5,0-6.3-2.8-6.3-6.3V9.3C3.4,5.8,6.2,3,9.7,3h57.7c3.5,0,6.3,2.8,6.3,6.3v37.5C73.6,50.2,70.8,53,67.3,53z"/>
</svg>

<svg id="icon-shape-style-3" viewBox="0 0 77 56">
	<style type="text/css">
		.st0{fill:#65d744;}
	</style>
	<path class="st0" d="M67.3,53H9.7c-3.5,0-6.3-2.8-6.3-6.3V9.3C3.4,5.8,6.2,3,9.7,3h57.7c3.5,0,6.3,2.8,6.3,6.3v37.5C73.6,50.2,70.8,53,67.3,53z"/>
</svg>

<svg id="icon-shape-style-4" viewBox="0 0 77 56">
	<style type="text/css">
		.st0{fill:#ea261f;}
	</style>
	<path class="st0" d="M67.3,53H9.7c-3.5,0-6.3-2.8-6.3-6.3V9.3C3.4,5.8,6.2,3,9.7,3h57.7c3.5,0,6.3,2.8,6.3,6.3v37.5C73.6,50.2,70.8,53,67.3,53z"/>
</svg>

<svg id="icon-shape-style-5" viewBox="0 0 77 56">
	<style type="text/css">
		.st0{fill:#fcad2a;}
	</style>
	<path class="st0" d="M67.3,53H9.7c-3.5,0-6.3-2.8-6.3-6.3V9.3C3.4,5.8,6.2,3,9.7,3h57.7c3.5,0,6.3,2.8,6.3,6.3v37.5C73.6,50.2,70.8,53,67.3,53z"/>
</svg>

<svg id="icon-shape-style-6" viewBox="0 0 77 56">
	<style type="text/css">
		.st0{fill:#fc47a1;}
	</style>
	<path class="st0" d="M67.3,53H9.7c-3.5,0-6.3-2.8-6.3-6.3V9.3C3.4,5.8,6.2,3,9.7,3h57.7c3.5,0,6.3,2.8,6.3,6.3v37.5C73.6,50.2,70.8,53,67.3,53z"/>
</svg>
