
<!-- <svg id="shape-rounded" class="xl-shape" viewBox="0 0 200 260" cache="false">
	<style type="text/css">
		.st0 {
			fill: transparent;
			stroke-width: 2;
			stroke: #888;
		}
	</style>
	<g class="title" transform="translate(0 -11)">
		<text x="50%" y="0" font-size="14" fill="#333" text-anchor="middle">Title</text>
	</g>
	<g class="caption" transform="translate(0 23)">
		<text x="50%" y="100%" font-size="14" fill="#666" text-anchor="middle">Caption</text>
	</g>
	<rect class="st0" x="0" y="0" width="100%" height="100%" rx="10"/>
</svg> -->

<!-- <svg id="shape-rectangle" class="xl-shape reflection" viewBox="0 0 100 100" cache="false">
	<style type="text/css">
		.st1{
			fill: url(#SVG-GR-1);
			stroke: #111111;
			stroke-width: 2;
		}
	</style>
	<linearGradient id="SVG-GR-1" x1=".5" y1=".1" x2=".5" y2=".9">
		<stop offset="0%" stop-color="#5555bb" />
		<stop offset="45%" stop-color="#eeeeff" />
		<stop offset="54%" stop-color="#555555" />
		<stop offset="100%" stop-color="#dddddd" />
	</linearGradient>
	<rect class="st1" x="0" y="0" width="100%" height="100%"/>
</svg> -->

<!-- <svg id="shape-disc" class="xl-shape" viewBox="0 0 100 100" cache="false">
	<style type="text/css">
		.st2{
			fill: url(#SVG-GR-2);
			filter: drop-shadow(4px 4px 5px rgba(0,0,0,.5));
		}
	</style>
	<radialGradient id="SVG-GR-2" cx="0.25" cy="0.25" r="0.75">
		<stop offset="0%" stop-color="#aaddff"/>
		<stop offset="100%" stop-color="#336699"/>
	</radialGradient>
	<circle class="st2" cx="50" cy="50" r="50"/>
</svg> -->

<!-- <svg id="shape-ellipse" class="xl-shape" viewBox="0 0 200 100" cache="false">
	<style type="text/css">
		.st21{
			fill: #336633;
		}
	</style>
	<ellipse class="st21" cx="100" cy="50" rx="100" ry="50" />
</svg> -->

<!-- <svg id="shape-triangle" class="xl-shape reflection" viewBox="0 0 100 100" cache="false">
	<style type="text/css">
		.st3{
			fill: #fcad2a;
			stroke-width: 3;
			stroke: #336699;
			stroke-dasharray: 6,3;
			filter: drop-shadow(4px 4px 5px rgba(0,0,0,.5));
		}
	</style>
	<polygon class="st3" points="97,97 50,3.6 3,97 "/>
</svg> -->

<!-- <svg id="shape-line-1" class="xl-shape" viewBox="0 0 100 30" cache="false">
	<style type="text/css">
		.st4{
			stroke-width: 2;
			stroke: #333333;
		}
	</style>
	<line class="st4" x1="0" y1="30" x2="100" y2="0"/>
</svg> -->

<!-- <svg id="shape-line-2" class="xl-shape" viewBox="0 0 100 120" cache="false">
	<style type="text/css">
		.st5{
			stroke-width: 2;
			stroke: #333333;
		}
	</style>
	<line class="st5" x1="0" y1="0" x2="100" y2="120"/>
</svg> -->

<!-- <svg id="shape-line-3" class="xl-shape" viewBox="0 0 100 100" cache="false">
	<style type="text/css">
		.st6{
			fill: transparent;
			stroke-width: 2;
			stroke: #333333;
		}
	</style>
	<path class="st6" d="M0,100 C20,-50 90,80 100,0"/>
</svg> -->


<!-- <svg id="shape-star" class="xl-shape" viewBox="0 0 100 100" cache="false">
	<style type="text/css">
		.st7{
			fill: #ff0000;
		}
	</style>
	<path class="st7" d="M50,4.6L35.1,34L3,39.3l22.9,23.5L21,95.4l29-14.8l29,14.8l-4.9-32.6L97,39.3L64.9,34L50,4.6z"/>
</svg> -->

<!-- <svg id="shape-hbi" class="xl-shape" viewBox="0 0 100 100" cache="false" preserveAspectRatio="none">
	<path fill="#333" d="M68.011,23.133c2.143-9.261-2.834-17.224-8.88-22.045c8.115,11.023,4.133,20.513,2.448,24.035c-0.687,0.229-1.298,0.229-1.681,0.229 c0.154,3.062-2.681,6.966-7.042,9.876c0.917-0.153,1.913-0.537,2.907-0.768C45.047,47.628,42.751,53.215,42.828,65.462 c-3.292,0.154-7.806-0.154-10.487-0.382c-0.611-8.574,7.333-17.297,10.334-20.896c3.063-3.674,26.638-31.538-14.008-22.429 c3.216,4.67-4.285,9.952-8.879,12.861c7.424-2.68,21.846-5.502,21.203,1.223c-0.816,8.554-14.467,17.376-18.37,28.169 c-2.297-0.23-4.747-0.612-6.508-1.072c2.219,4.747-6.276,7.502-10.87,8.42c5.97,0.689,12.324,0.766,14.544,0.766 c-1.071,12.554,7.808,20.974,18.371,24.646c-12.093-7.118-14.774-20.129,0.765-18.677c-2.603-2.755-4.134-4.897-4.899-6.735 c2.45-0.152,7.348-0.612,9.645-0.918c1.377,3.751,4.974,8.496,7.195,10.41c3.982-5.741,10.411-6.68,14.697-1.99 c3.229,3.536,1.146,14.161-1.531,20.055c13.457-17.729,1.059-28.555-3.521-32.456c41.868-20.512,32.912-29.315,12.857-24.877 C98.78,29.179,106.744,14.712,68.011,23.133z M78.728,47.244c1.072,2.297-6.584,9.722-21.279,15.081 c-4.285-6.277-2.525-10.871-1.38-13.167C69.007,44.871,77.653,44.948,78.728,47.244z M82.4,31.399 c-3.062,3.368-16.838,9.951-24.647,12.708c1.914-4.289,4.442-9.032,6.431-11.79C75.817,29.41,85.463,28.032,82.4,31.399z"/>
</svg> -->




<svg id="shape-rectangle" viewBox="0 0 100 100">
	<style type="text/css">
		.st0{fill:#333;}
	</style>
	<rect class="st0" x="3" y="3" width="94" height="94"/>
</svg>

<svg id="shape-disc" viewBox="0 0 100 100">
	<style type="text/css">
		.st0{fill:#333;}
	</style>
	<circle class="st0" cx="50" cy="50" r="47"/>
</svg>

<svg id="shape-triangle" viewBox="0 0 100 100">
	<style type="text/css">
		.st0{fill:#333;}
	</style>
	<polygon class="st0" points="97,97 50,3.6 3,97 "/>
</svg>

<svg id="shape-hexagon" viewBox="0 0 100 100">
	<style type="text/css">
		.st0{fill:#333;}
	</style>
	<polygon class="st0" points="73.4,9.5 26.6,9.5 3.2,50 26.6,90.5 73.4,90.5 96.8,50 "/>
</svg>

<svg id="shape-star" viewBox="0 0 100 100">
	<style type="text/css">
		.st0{fill:#333;}
	</style>
	<path class="st0" d="M50,4.6L35.1,34L3,39.3l22.9,23.5L21,95.4l29-14.8l29,14.8l-4.9-32.6L97,39.3L64.9,34L50,4.6z"/>
</svg>

<svg id="shape-pentagon" viewBox="0 0 100 100">
	<style type="text/css">
		.st0{fill:#333;}
	</style>
	<polygon class="st0" points="23.2,96.9 3.1,43.3 50,3.1 96.9,43.3 76.8,96.9 "/>
</svg>



<svg id="icon-text-style-1" viewBox="0 0 77 56">
	<style type="text/css">
		.st0{fill:#222;}
		.st1{fill:#fff;}
	</style>
	<path class="st0" d="M67.3,53H9.7c-3.5,0-6.3-2.8-6.3-6.3V9.3C3.4,5.8,6.2,3,9.7,3h57.7c3.5,0,6.3,2.8,6.3,6.3v37.5 C73.6,50.2,70.8,53,67.3,53z"/>
	<path class="st1" d="M32,23.9h-3.7V34h-2.5V23.9h-3.7v-2H32V23.9z"/>
	<path class="st1" d="M36.7,34.1c-1.3,0-2.4-0.4-3.2-1.2c-0.8-0.8-1.2-1.9-1.2-3.2v-0.2c0-0.9,0.2-1.7,0.5-2.4 c0.3-0.7,0.8-1.3,1.5-1.6c0.6-0.4,1.4-0.6,2.2-0.6c1.2,0,2.2,0.4,2.9,1.2c0.7,0.8,1.1,1.9,1.1,3.3v1h-5.7c0.1,0.6,0.3,1.1,0.7,1.4 c0.4,0.4,0.9,0.5,1.5,0.5c0.9,0,1.6-0.3,2.2-1l1.2,1.3c-0.4,0.5-0.8,0.9-1.5,1.2S37.4,34.1,36.7,34.1z M36.4,26.7 c-0.5,0-0.9,0.2-1.2,0.5c-0.3,0.3-0.5,0.8-0.6,1.4H38v-0.2c0-0.5-0.2-0.9-0.4-1.2C37.3,26.9,36.9,26.7,36.4,26.7z"/>
	<path class="st1" d="M45.2,27.7l1.5-2.7h2.6l-2.6,4.4l2.7,4.6h-2.6l-1.6-2.8L43.6,34H41l2.7-4.6L41.1,25h2.6L45.2,27.7z"/>
	<path class="st1" d="M53.3,22.8V25h1.5v1.8h-1.5v4.5c0,0.3,0.1,0.6,0.2,0.7c0.1,0.1,0.4,0.2,0.7,0.2c0.3,0,0.5,0,0.7-0.1v1.8 c-0.5,0.1-1,0.2-1.5,0.2c-1.7,0-2.5-0.8-2.6-2.5v-4.8h-1.3V25h1.3v-2.2H53.3z"/>
</svg>

<svg id="icon-text-style-2" viewBox="0 0 77 56">
	<style type="text/css">
		.st0{fill:#1ba3fc;}
		.st1{fill:#111;}
	</style>
	<path class="st0" d="M67.3,53H9.7c-3.5,0-6.3-2.8-6.3-6.3V9.3C3.4,5.8,6.2,3,9.7,3h57.7c3.5,0,6.3,2.8,6.3,6.3v37.5 C73.6,50.2,70.8,53,67.3,53z"/>
	<path class="st1" d="M32,23.9h-3.7V34h-2.5V23.9h-3.7v-2H32V23.9z"/>
	<path class="st1" d="M36.7,34.1c-1.3,0-2.4-0.4-3.2-1.2c-0.8-0.8-1.2-1.9-1.2-3.2v-0.2c0-0.9,0.2-1.7,0.5-2.4 c0.3-0.7,0.8-1.3,1.5-1.6c0.6-0.4,1.4-0.6,2.2-0.6c1.2,0,2.2,0.4,2.9,1.2c0.7,0.8,1.1,1.9,1.1,3.3v1h-5.7c0.1,0.6,0.3,1.1,0.7,1.4 c0.4,0.4,0.9,0.5,1.5,0.5c0.9,0,1.6-0.3,2.2-1l1.2,1.3c-0.4,0.5-0.8,0.9-1.5,1.2S37.4,34.1,36.7,34.1z M36.4,26.7 c-0.5,0-0.9,0.2-1.2,0.5c-0.3,0.3-0.5,0.8-0.6,1.4H38v-0.2c0-0.5-0.2-0.9-0.4-1.2C37.3,26.9,36.9,26.7,36.4,26.7z"/>
	<path class="st1" d="M45.2,27.7l1.5-2.7h2.6l-2.6,4.4l2.7,4.6h-2.6l-1.6-2.8L43.6,34H41l2.7-4.6L41.1,25h2.6L45.2,27.7z"/>
	<path class="st1" d="M53.3,22.8V25h1.5v1.8h-1.5v4.5c0,0.3,0.1,0.6,0.2,0.7c0.1,0.1,0.4,0.2,0.7,0.2c0.3,0,0.5,0,0.7-0.1v1.8 c-0.5,0.1-1,0.2-1.5,0.2c-1.7,0-2.5-0.8-2.6-2.5v-4.8h-1.3V25h1.3v-2.2H53.3z"/>
</svg>

<svg id="icon-text-style-3" viewBox="0 0 77 56">
	<style type="text/css">
		.st0{fill:#65d744;}
		.st1{fill:#111;}
	</style>
	<path class="st0" d="M67.3,53H9.7c-3.5,0-6.3-2.8-6.3-6.3V9.3C3.4,5.8,6.2,3,9.7,3h57.7c3.5,0,6.3,2.8,6.3,6.3v37.5 C73.6,50.2,70.8,53,67.3,53z"/>
	<path class="st1" d="M32,23.9h-3.7V34h-2.5V23.9h-3.7v-2H32V23.9z"/>
	<path class="st1" d="M36.7,34.1c-1.3,0-2.4-0.4-3.2-1.2c-0.8-0.8-1.2-1.9-1.2-3.2v-0.2c0-0.9,0.2-1.7,0.5-2.4 c0.3-0.7,0.8-1.3,1.5-1.6c0.6-0.4,1.4-0.6,2.2-0.6c1.2,0,2.2,0.4,2.9,1.2c0.7,0.8,1.1,1.9,1.1,3.3v1h-5.7c0.1,0.6,0.3,1.1,0.7,1.4 c0.4,0.4,0.9,0.5,1.5,0.5c0.9,0,1.6-0.3,2.2-1l1.2,1.3c-0.4,0.5-0.8,0.9-1.5,1.2S37.4,34.1,36.7,34.1z M36.4,26.7 c-0.5,0-0.9,0.2-1.2,0.5c-0.3,0.3-0.5,0.8-0.6,1.4H38v-0.2c0-0.5-0.2-0.9-0.4-1.2C37.3,26.9,36.9,26.7,36.4,26.7z"/>
	<path class="st1" d="M45.2,27.7l1.5-2.7h2.6l-2.6,4.4l2.7,4.6h-2.6l-1.6-2.8L43.6,34H41l2.7-4.6L41.1,25h2.6L45.2,27.7z"/>
	<path class="st1" d="M53.3,22.8V25h1.5v1.8h-1.5v4.5c0,0.3,0.1,0.6,0.2,0.7c0.1,0.1,0.4,0.2,0.7,0.2c0.3,0,0.5,0,0.7-0.1v1.8 c-0.5,0.1-1,0.2-1.5,0.2c-1.7,0-2.5-0.8-2.6-2.5v-4.8h-1.3V25h1.3v-2.2H53.3z"/>
</svg>

<svg id="icon-text-style-4" viewBox="0 0 77 56">
	<style type="text/css">
		.st0{fill:#ea261f;}
		.st1{fill:#fff;}
	</style>
	<path class="st0" d="M67.3,53H9.7c-3.5,0-6.3-2.8-6.3-6.3V9.3C3.4,5.8,6.2,3,9.7,3h57.7c3.5,0,6.3,2.8,6.3,6.3v37.5 C73.6,50.2,70.8,53,67.3,53z"/>
	<path class="st1" d="M32,23.9h-3.7V34h-2.5V23.9h-3.7v-2H32V23.9z"/>
	<path class="st1" d="M36.7,34.1c-1.3,0-2.4-0.4-3.2-1.2c-0.8-0.8-1.2-1.9-1.2-3.2v-0.2c0-0.9,0.2-1.7,0.5-2.4 c0.3-0.7,0.8-1.3,1.5-1.6c0.6-0.4,1.4-0.6,2.2-0.6c1.2,0,2.2,0.4,2.9,1.2c0.7,0.8,1.1,1.9,1.1,3.3v1h-5.7c0.1,0.6,0.3,1.1,0.7,1.4 c0.4,0.4,0.9,0.5,1.5,0.5c0.9,0,1.6-0.3,2.2-1l1.2,1.3c-0.4,0.5-0.8,0.9-1.5,1.2S37.4,34.1,36.7,34.1z M36.4,26.7 c-0.5,0-0.9,0.2-1.2,0.5c-0.3,0.3-0.5,0.8-0.6,1.4H38v-0.2c0-0.5-0.2-0.9-0.4-1.2C37.3,26.9,36.9,26.7,36.4,26.7z"/>
	<path class="st1" d="M45.2,27.7l1.5-2.7h2.6l-2.6,4.4l2.7,4.6h-2.6l-1.6-2.8L43.6,34H41l2.7-4.6L41.1,25h2.6L45.2,27.7z"/>
	<path class="st1" d="M53.3,22.8V25h1.5v1.8h-1.5v4.5c0,0.3,0.1,0.6,0.2,0.7c0.1,0.1,0.4,0.2,0.7,0.2c0.3,0,0.5,0,0.7-0.1v1.8 c-0.5,0.1-1,0.2-1.5,0.2c-1.7,0-2.5-0.8-2.6-2.5v-4.8h-1.3V25h1.3v-2.2H53.3z"/>
</svg>

<svg id="icon-text-style-5" viewBox="0 0 77 56">
	<style type="text/css">
		.st0{fill:#fcad2a;}
		.st1{fill:#111;}
	</style>
	<path class="st0" d="M67.3,53H9.7c-3.5,0-6.3-2.8-6.3-6.3V9.3C3.4,5.8,6.2,3,9.7,3h57.7c3.5,0,6.3,2.8,6.3,6.3v37.5 C73.6,50.2,70.8,53,67.3,53z"/>
	<path class="st1" d="M32,23.9h-3.7V34h-2.5V23.9h-3.7v-2H32V23.9z"/>
	<path class="st1" d="M36.7,34.1c-1.3,0-2.4-0.4-3.2-1.2c-0.8-0.8-1.2-1.9-1.2-3.2v-0.2c0-0.9,0.2-1.7,0.5-2.4 c0.3-0.7,0.8-1.3,1.5-1.6c0.6-0.4,1.4-0.6,2.2-0.6c1.2,0,2.2,0.4,2.9,1.2c0.7,0.8,1.1,1.9,1.1,3.3v1h-5.7c0.1,0.6,0.3,1.1,0.7,1.4 c0.4,0.4,0.9,0.5,1.5,0.5c0.9,0,1.6-0.3,2.2-1l1.2,1.3c-0.4,0.5-0.8,0.9-1.5,1.2S37.4,34.1,36.7,34.1z M36.4,26.7 c-0.5,0-0.9,0.2-1.2,0.5c-0.3,0.3-0.5,0.8-0.6,1.4H38v-0.2c0-0.5-0.2-0.9-0.4-1.2C37.3,26.9,36.9,26.7,36.4,26.7z"/>
	<path class="st1" d="M45.2,27.7l1.5-2.7h2.6l-2.6,4.4l2.7,4.6h-2.6l-1.6-2.8L43.6,34H41l2.7-4.6L41.1,25h2.6L45.2,27.7z"/>
	<path class="st1" d="M53.3,22.8V25h1.5v1.8h-1.5v4.5c0,0.3,0.1,0.6,0.2,0.7c0.1,0.1,0.4,0.2,0.7,0.2c0.3,0,0.5,0,0.7-0.1v1.8 c-0.5,0.1-1,0.2-1.5,0.2c-1.7,0-2.5-0.8-2.6-2.5v-4.8h-1.3V25h1.3v-2.2H53.3z"/>
</svg>

<svg id="icon-text-style-6" viewBox="0 0 77 56">
	<style type="text/css">
		.st0{fill:#fc47a1;}
		.st1{fill:#fff;}
	</style>
	<path class="st0" d="M67.3,53H9.7c-3.5,0-6.3-2.8-6.3-6.3V9.3C3.4,5.8,6.2,3,9.7,3h57.7c3.5,0,6.3,2.8,6.3,6.3v37.5 C73.6,50.2,70.8,53,67.3,53z"/>
	<path class="st1" d="M32,23.9h-3.7V34h-2.5V23.9h-3.7v-2H32V23.9z"/>
	<path class="st1" d="M36.7,34.1c-1.3,0-2.4-0.4-3.2-1.2c-0.8-0.8-1.2-1.9-1.2-3.2v-0.2c0-0.9,0.2-1.7,0.5-2.4 c0.3-0.7,0.8-1.3,1.5-1.6c0.6-0.4,1.4-0.6,2.2-0.6c1.2,0,2.2,0.4,2.9,1.2c0.7,0.8,1.1,1.9,1.1,3.3v1h-5.7c0.1,0.6,0.3,1.1,0.7,1.4 c0.4,0.4,0.9,0.5,1.5,0.5c0.9,0,1.6-0.3,2.2-1l1.2,1.3c-0.4,0.5-0.8,0.9-1.5,1.2S37.4,34.1,36.7,34.1z M36.4,26.7 c-0.5,0-0.9,0.2-1.2,0.5c-0.3,0.3-0.5,0.8-0.6,1.4H38v-0.2c0-0.5-0.2-0.9-0.4-1.2C37.3,26.9,36.9,26.7,36.4,26.7z"/>
	<path class="st1" d="M45.2,27.7l1.5-2.7h2.6l-2.6,4.4l2.7,4.6h-2.6l-1.6-2.8L43.6,34H41l2.7-4.6L41.1,25h2.6L45.2,27.7z"/>
	<path class="st1" d="M53.3,22.8V25h1.5v1.8h-1.5v4.5c0,0.3,0.1,0.6,0.2,0.7c0.1,0.1,0.4,0.2,0.7,0.2c0.3,0,0.5,0,0.7-0.1v1.8 c-0.5,0.1-1,0.2-1.5,0.2c-1.7,0-2.5-0.8-2.6-2.5v-4.8h-1.3V25h1.3v-2.2H53.3z"/>
</svg>



<svg id="icon-line-style-1" viewBox="0 0 77 56">
	<style type="text/css">
		.st0{stroke:#222222;stroke-width:3;}
	</style>
	<line class="st0" x1="5" y1="28" x2="72" y2="28"/>
</svg>

<svg id="icon-line-style-2" viewBox="0 0 77 56">
	<style type="text/css">
		.st0{stroke:#1ba3fc;stroke-width:3;}
	</style>
	<line class="st0" x1="5" y1="28" x2="72" y2="28"/>
</svg>

<svg id="icon-line-style-3" viewBox="0 0 77 56">
	<style type="text/css">
		.st0{stroke:#65d744;stroke-width:3;}
	</style>
	<line class="st0" x1="5" y1="28" x2="72" y2="28"/>
</svg>

<svg id="icon-line-style-4" viewBox="0 0 77 56">
	<style type="text/css">
		.st0{stroke:#ea261f;stroke-width:3;}
	</style>
	<line class="st0" x1="5" y1="28" x2="72" y2="28"/>
</svg>

<svg id="icon-line-style-5" viewBox="0 0 77 56">
	<style type="text/css">
		.st0{stroke:#fcad2a;stroke-width:3;}
	</style>
	<line class="st0" x1="5" y1="28" x2="72" y2="28"/>
</svg>

<svg id="icon-line-style-6" viewBox="0 0 77 56">
	<style type="text/css">
		.st0{stroke:#fc47a1;stroke-width:3;}
	</style>
	<line class="st0" x1="5" y1="28" x2="72" y2="28"/>
</svg>



<svg id="icon-shape-style-1" viewBox="0 0 77 56">
	<style type="text/css">
		.st0{fill:#222222;}
	</style>
	<path class="st0" d="M67.3,53H9.7c-3.5,0-6.3-2.8-6.3-6.3V9.3C3.4,5.8,6.2,3,9.7,3h57.7c3.5,0,6.3,2.8,6.3,6.3v37.5C73.6,50.2,70.8,53,67.3,53z"/>
</svg>

<svg id="icon-shape-style-2" viewBox="0 0 77 56">
	<style type="text/css">
		.st0{fill:#1ba3fc;}
	</style>
	<path class="st0" d="M67.3,53H9.7c-3.5,0-6.3-2.8-6.3-6.3V9.3C3.4,5.8,6.2,3,9.7,3h57.7c3.5,0,6.3,2.8,6.3,6.3v37.5C73.6,50.2,70.8,53,67.3,53z"/>
</svg>

<svg id="icon-shape-style-3" viewBox="0 0 77 56">
	<style type="text/css">
		.st0{fill:#65d744;}
	</style>
	<path class="st0" d="M67.3,53H9.7c-3.5,0-6.3-2.8-6.3-6.3V9.3C3.4,5.8,6.2,3,9.7,3h57.7c3.5,0,6.3,2.8,6.3,6.3v37.5C73.6,50.2,70.8,53,67.3,53z"/>
</svg>

<svg id="icon-shape-style-4" viewBox="0 0 77 56">
	<style type="text/css">
		.st0{fill:#ea261f;}
	</style>
	<path class="st0" d="M67.3,53H9.7c-3.5,0-6.3-2.8-6.3-6.3V9.3C3.4,5.8,6.2,3,9.7,3h57.7c3.5,0,6.3,2.8,6.3,6.3v37.5C73.6,50.2,70.8,53,67.3,53z"/>
</svg>

<svg id="icon-shape-style-5" viewBox="0 0 77 56">
	<style type="text/css">
		.st0{fill:#fcad2a;}
	</style>
	<path class="st0" d="M67.3,53H9.7c-3.5,0-6.3-2.8-6.3-6.3V9.3C3.4,5.8,6.2,3,9.7,3h57.7c3.5,0,6.3,2.8,6.3,6.3v37.5C73.6,50.2,70.8,53,67.3,53z"/>
</svg>

<svg id="icon-shape-style-6" viewBox="0 0 77 56">
	<style type="text/css">
		.st0{fill:#fc47a1;}
	</style>
	<path class="st0" d="M67.3,53H9.7c-3.5,0-6.3-2.8-6.3-6.3V9.3C3.4,5.8,6.2,3,9.7,3h57.7c3.5,0,6.3,2.8,6.3,6.3v37.5C73.6,50.2,70.8,53,67.3,53z"/>
</svg>
